<svg xmlns="http://www.w3.org/2000/svg" viewBox="-21.2132 -14.3367 155.5635 93.9931" stroke-width="0.4243">
<polygon points="-1.1254,7.4645 2.0059,7.2656 3.2135,7.2310" fill="rgb(136,136,136)" stroke="none"/>
<polygon points="-6.7112,-3.0409 -4.2342,-6.7761 -5.0089,-5.9274" fill="rgb(136,136,136)" stroke="none"/>
<polygon points="-7.6549,-1.5095 -6.7112,-3.0409 -5.0089,-5.9274" fill="rgb(136,136,136)" stroke="none"/>
<polygon points="-1.1254,7.4645 3.2135,7.2310 4.2342,6.7761" fill="rgb(136,136,136)" stroke="none"/>
<polygon points="-6.7112,-3.0409 -3.2135,-7.2310 -4.2342,-6.7761" fill="rgb(136,136,136)" stroke="none"/>
<polygon points="0.2211,6.4868 4.2342,6.7761 5.0089,5.9274" fill="rgb(136,136,136)" stroke="none"/>
<polygon points="0.2211,6.4868 -1.1254,7.4645 4.2342,6.7761" fill="rgb(136,136,136)" stroke="none"/>
<polygon points="-6.7112,-3.0409 -5.0400,-3.4080 -3.2135,-7.2310" fill="rgb(136,136,136)" stroke="none"/>
<polygon points="-5.0400,-3.4080 -2.0059,-7.2656 -3.2135,-7.2310" fill="rgb(136,136,136)" stroke="none"/>
<polygon points="0.2211,6.4868 5.0089,5.9274 5.4925,4.7343" fill="rgb(136,136,136)" stroke="none"/>
<polygon points="-5.4643,7.6980 -1.1254,7.4645 0.2211,6.4868" fill="rgb(136,136,136)" stroke="none"/>
<polygon points="-5.0400,-3.4080 -0.6819,-6.8780 -2.0059,-7.2656" fill="rgb(136,136,136)" stroke="none"/>
<polygon points="-9.8173,1.7153 -9.1882,0.6944 -6.7112,-3.0409" fill="rgb(136,136,136)" stroke="none"/>
<polygon points="0.2211,6.4868 5.4925,4.7343 0.7071,4.4907" fill="rgb(136,136,136)" stroke="none"/>
<polygon points="0.7071,4.4907 5.4925,4.7343 5.6569,3.2660" fill="rgb(136,136,136)" stroke="none"/>
<polygon points="-8.0740,0.4497 -5.0400,-3.4080 -6.7112,-3.0409" fill="rgb(136,136,136)" stroke="none"/>
<polygon points="-9.1882,0.6944 -8.0740,0.4497 -6.7112,-3.0409" fill="rgb(136,136,136)" stroke="none"/>
<polygon points="-5.0400,-3.4080 -3.0241,-2.5268 -0.6819,-6.8780" fill="rgb(136,136,136)" stroke="none"/>
<polygon points="-3.0241,-2.5268 0.6819,-6.0907 -0.6819,-6.8780" fill="rgb(136,136,136)" stroke="none"/>
<polygon points="-4.5666,7.0462 -5.4643,7.6980 0.2211,6.4868" fill="rgb(136,136,136)" stroke="none"/>
<polygon points="0.7071,4.4907 5.6569,3.2660 5.4925,1.6079" fill="rgb(136,136,136)" stroke="none"/>
<polygon points="-4.5666,7.0462 0.2211,6.4868 0.7071,4.4907" fill="rgb(136,136,136)" stroke="none"/>
<polygon points="-3.0241,-2.5268 2.0059,-4.9494 0.6819,-6.0907" fill="rgb(136,136,136)" stroke="none"/>
<polygon points="-8.0740,0.4497 -3.0241,-2.5268 -5.0400,-3.4080" fill="rgb(136,136,136)" stroke="none"/>
<polygon points="0.2211,1.9335 5.4925,1.6079 5.0089,-0.1437" fill="rgb(136,136,136)" stroke="none"/>
<polygon points="0.2211,1.9335 0.7071,4.4907 5.4925,1.6079" fill="rgb(136,136,136)" stroke="none"/>
<polygon points="-1.1254,-0.5991 3.2135,-3.5204 2.0059,-4.9494" fill="rgb(136,136,136)" stroke="none"/>
<polygon points="0.2211,1.9335 5.0089,-0.1437 4.2342,-1.8869" fill="rgb(136,136,136)" stroke="none"/>
<polygon points="-3.0241,-2.5268 -1.1254,-0.5991 2.0059,-4.9494" fill="rgb(136,136,136)" stroke="none"/>
<polygon points="-1.1254,-0.5991 4.2342,-1.8869 3.2135,-3.5204" fill="rgb(136,136,136)" stroke="none"/>
<polygon points="-9.3544,7.6056 -5.4643,7.6980 -4.5666,7.0462" fill="rgb(136,136,136)" stroke="none"/>
<polygon points="-4.5666,7.0462 0.7071,4.4907 -4.2426,5.7155" fill="rgb(136,136,136)" stroke="none"/>
<polygon points="-1.1254,-0.5991 0.2211,1.9335 4.2342,-1.8869" fill="rgb(136,136,136)" stroke="none"/>
<polygon points="-11.9797,4.9402 -11.6652,4.4297 -9.1882,0.6944" fill="rgb(136,136,136)" stroke="none"/>
<polygon points="-11.1081,4.3073 -8.0740,0.4497 -9.1882,0.6944" fill="rgb(136,136,136)" stroke="none"/>
<polygon points="-8.0740,0.4497 -6.7301,1.0371 -3.0241,-2.5268" fill="rgb(136,136,136)" stroke="none"/>
<polygon points="-9.3544,7.6056 -9.8032,7.9315 -5.4643,7.6980" fill="rgb(136,136,136)" stroke="none"/>
<polygon points="-6.7301,1.0371 -1.1254,-0.5991 -3.0241,-2.5268" fill="rgb(136,136,136)" stroke="none"/>
<polygon points="-4.5666,4.0106 0.7071,4.4907 0.2211,1.9335" fill="rgb(136,136,136)" stroke="none"/>
<polygon points="-4.5666,4.0106 -4.2426,5.7155 0.7071,4.4907" fill="rgb(136,136,136)" stroke="none"/>
<polygon points="-11.6652,4.4297 -11.1081,4.3073 -9.1882,0.6944" fill="rgb(136,136,136)" stroke="none"/>
<polygon points="-9.3544,7.6056 -4.5666,7.0462 -4.2426,5.7155" fill="rgb(136,136,136)" stroke="none"/>
<polygon points="-5.4643,2.3223 0.2211,1.9335 -1.1254,-0.5991" fill="rgb(136,136,136)" stroke="none"/>
<polygon points="-11.1081,4.3073 -6.7301,1.0371 -8.0740,0.4497" fill="rgb(136,136,136)" stroke="none"/>
<polygon points="-6.7301,1.0371 -5.4643,2.3223 -1.1254,-0.5991" fill="rgb(136,136,136)" stroke="none"/>
<polygon points="-5.4643,2.3223 -4.5666,4.0106 0.2211,1.9335" fill="rgb(136,136,136)" stroke="none"/>
<polygon points="-11.9797,5.7218 -14.1421,8.1650 -11.9797,4.9402" fill="rgb(136,136,136)" stroke="none"/>
<polygon points="-9.3544,7.6056 -4.2426,5.7155 -9.1924,6.9402" fill="rgb(136,136,136)" stroke="none"/>
<polygon points="-9.3544,6.0878 -4.2426,5.7155 -4.5666,4.0106" fill="rgb(136,136,136)" stroke="none"/>
<polygon points="-10.4361,4.6011 -5.4643,2.3223 -6.7301,1.0371" fill="rgb(136,136,136)" stroke="none"/>
<polygon points="-11.1081,4.3073 -10.4361,4.6011 -6.7301,1.0371" fill="rgb(136,136,136)" stroke="none"/>
<polygon points="-11.9797,4.9402 -14.1421,8.1650 -11.6652,4.4297" fill="rgb(136,136,136)" stroke="none"/>
<polygon points="-9.3544,6.0878 -9.1924,6.9402 -4.2426,5.7155" fill="rgb(136,136,136)" stroke="none"/>
<polygon points="-9.8032,5.2436 -4.5666,4.0106 -5.4643,2.3223" fill="rgb(136,136,136)" stroke="none"/>
<polygon points="-9.3544,7.6056 -14.1421,8.1650 -9.8032,7.9315" fill="rgb(136,136,136)" stroke="none"/>
<polygon points="-10.4361,4.6011 -9.8032,5.2436 -5.4643,2.3223" fill="rgb(136,136,136)" stroke="none"/>
<polygon points="-9.8032,5.2436 -9.3544,6.0878 -4.5666,4.0106" fill="rgb(136,136,136)" stroke="none"/>
<polygon points="-11.6652,4.4297 -14.1421,8.1650 -11.1081,4.3073" fill="rgb(136,136,136)" stroke="none"/>
<polygon points="-11.9797,5.7218 -14.1421,8.1650 -14.1421,8.1650" fill="rgb(136,136,136)" stroke="none"/>
<polygon points="-9.3544,7.6056 -9.1924,6.9402 -14.1421,8.1650" fill="rgb(136,136,136)" stroke="none"/>
<polygon points="-11.1081,4.3073 -14.1421,8.1650 -10.4361,4.6011" fill="rgb(136,136,136)" stroke="none"/>
<polygon points="-9.3544,6.0878 -14.1421,8.1650 -9.1924,6.9402" fill="rgb(136,136,136)" stroke="none"/>
<polygon points="-10.4361,4.6011 -14.1421,8.1650 -9.8032,5.2436" fill="rgb(136,136,136)" stroke="none"/>
<polygon points="-9.8032,5.2436 -14.1421,8.1650 -9.3544,6.0878" fill="rgb(136,136,136)" stroke="none"/>
<polygon points="13.0167,31.9594 16.1481,31.7605 17.3556,31.7259" fill="rgb(74,144,217)" stroke="none"/>
<polygon points="7.4309,21.4540 9.9079,17.7188 9.1332,18.5675" fill="rgb(74,144,217)" stroke="none"/>
<polygon points="13.0167,31.9594 17.3556,31.7259 18.3764,31.2710" fill="rgb(74,144,217)" stroke="none"/>
<polygon points="54.8570,44.3099 56.5685,48.9898 56.5685,48.9898" fill="rgb(230,126,34)" stroke="none"/>
<polygon points="7.4309,21.4540 10.9287,17.2639 9.9079,17.7188" fill="rgb(74,144,217)" stroke="none"/>
<polygon points="54.8570,44.3099 56.5685,48.9898 54.5722,44.8376" fill="rgb(230,126,34)" stroke="none"/>
<polygon points="58.4780,45.2508 56.5685,48.9898 58.5358,44.6992" fill="rgb(230,126,34)" stroke="none"/>
<polygon points="54.5722,44.8376 56.5685,48.9898 54.7447,45.3812" fill="rgb(230,126,34)" stroke="none"/>
<polygon points="14.3633,30.9817 18.3764,31.2710 19.1510,30.4223" fill="rgb(74,144,217)" stroke="none"/>
<polygon points="14.3633,30.9817 13.0167,31.9594 18.3764,31.2710" fill="rgb(74,144,217)" stroke="none"/>
<polygon points="58.4780,45.2508 57.9828,45.7238 56.5685,48.9898" fill="rgb(230,126,34)" stroke="none"/>
<polygon points="54.7447,45.3812 56.5685,48.9898 55.3351,45.8163" fill="rgb(230,126,34)" stroke="none"/>
<polygon points="57.1635,46.0097 56.5685,48.9898 57.9828,45.7238" fill="rgb(230,126,34)" stroke="none"/>
<polygon points="55.3351,45.8163 56.5685,48.9898 56.2080,46.0431" fill="rgb(230,126,34)" stroke="none"/>
<polygon points="7.4309,21.4540 9.1021,21.0869 10.9287,17.2639" fill="rgb(74,144,217)" stroke="none"/>
<polygon points="9.1021,21.0869 12.1362,17.2293 10.9287,17.2639" fill="rgb(74,144,217)" stroke="none"/>
<polygon points="56.2080,46.0431 56.5685,48.9898 57.1635,46.0097" fill="rgb(230,126,34)" stroke="none"/>
<polygon points="14.3633,30.9817 19.1510,30.4223 19.6346,29.2292" fill="rgb(74,144,217)" stroke="none"/>
<polygon points="58.4780,45.2508 58.5358,44.6992 60.5030,40.4085" fill="rgb(230,126,34)" stroke="none"/>
<polygon points="9.1021,21.0869 13.4603,17.6169 12.1362,17.2293" fill="rgb(74,144,217)" stroke="none"/>
<polygon points="4.3248,26.2102 4.9540,25.1893 7.4309,21.4540" fill="rgb(74,144,217)" stroke="none"/>
<polygon points="54.5722,44.8376 52.5758,40.6854 53.1454,39.6301" fill="rgb(230,126,34)" stroke="none"/>
<polygon points="4.9540,25.1893 9.1021,21.0869 7.4309,21.4540" fill="rgb(74,144,217)" stroke="none"/>
<polygon points="9.5755,31.5411 13.0167,31.9594 14.3633,30.9817" fill="rgb(74,144,217)" stroke="none"/>
<polygon points="54.5722,44.8376 54.7447,45.3812 52.9209,41.7726" fill="rgb(230,126,34)" stroke="none"/>
<polygon points="9.5755,31.5411 8.6778,32.1929 13.0167,31.9594" fill="rgb(74,144,217)" stroke="none"/>
<polygon points="14.3633,30.9817 19.6346,29.2292 14.8492,28.9856" fill="rgb(74,144,217)" stroke="none"/>
<polygon points="14.8492,28.9856 19.6346,29.2292 19.7990,27.7609" fill="rgb(74,144,217)" stroke="none"/>
<polygon points="54.7447,45.3812 55.3351,45.8163 52.9209,41.7726" fill="rgb(230,126,34)" stroke="none"/>
<polygon points="58.4780,45.2508 60.5030,40.4085 60.3874,41.5119" fill="rgb(230,126,34)" stroke="none"/>
<polygon points="54.5722,44.8376 52.9209,41.7726 52.5758,40.6854" fill="rgb(230,126,34)" stroke="none"/>
<polygon points="58.4780,45.2508 59.3970,42.4578 57.9828,45.7238" fill="rgb(230,126,34)" stroke="none"/>
<polygon points="9.1021,21.0869 11.1180,21.9681 13.4603,17.6169" fill="rgb(74,144,217)" stroke="none"/>
<polygon points="11.1180,21.9681 14.8240,18.4042 13.4603,17.6169" fill="rgb(74,144,217)" stroke="none"/>
<polygon points="14.8492,28.9856 19.7990,27.7609 19.6346,26.1028" fill="rgb(74,144,217)" stroke="none"/>
<polygon points="57.1635,46.0097 57.9828,45.7238 59.3970,42.4578" fill="rgb(230,126,34)" stroke="none"/>
<polygon points="9.5755,31.5411 14.3633,30.9817 14.8492,28.9856" fill="rgb(74,144,217)" stroke="none"/>
<polygon points="4.9540,25.1893 6.0681,24.9446 9.1021,21.0869" fill="rgb(74,144,217)" stroke="none"/>
<polygon points="55.3351,45.8163 56.2080,46.0431 55.8475,43.0964" fill="rgb(230,126,34)" stroke="none"/>
<polygon points="11.1180,21.9681 16.1481,19.5455 14.8240,18.4042" fill="rgb(74,144,217)" stroke="none"/>
<polygon points="56.2080,46.0431 57.1635,46.0097 55.8475,43.0964" fill="rgb(230,126,34)" stroke="none"/>
<polygon points="53.1454,39.6301 52.5758,40.6854 50.5795,36.5332" fill="rgb(230,126,34)" stroke="none"/>
<polygon points="58.4780,45.2508 60.3874,41.5119 59.3970,42.4578" fill="rgb(230,126,34)" stroke="none"/>
<polygon points="14.3633,26.4284 19.6346,26.1028 19.1510,24.3512" fill="rgb(74,144,217)" stroke="none"/>
<polygon points="14.3633,26.4284 14.8492,28.9856 19.6346,26.1028" fill="rgb(74,144,217)" stroke="none"/>
<polygon points="55.3351,45.8163 54.1017,42.6428 52.9209,41.7726" fill="rgb(230,126,34)" stroke="none"/>
<polygon points="60.3874,41.5119 60.5030,40.4085 62.4703,36.1179" fill="rgb(230,126,34)" stroke="none"/>
<polygon points="7.4120,25.5320 11.1180,21.9681 9.1021,21.0869" fill="rgb(74,144,217)" stroke="none"/>
<polygon points="13.0167,23.8958 17.3556,20.9745 16.1481,19.5455" fill="rgb(74,144,217)" stroke="none"/>
<polygon points="14.3633,26.4284 19.1510,24.3512 18.3764,22.6080" fill="rgb(74,144,217)" stroke="none"/>
<polygon points="6.0681,24.9446 7.4120,25.5320 9.1021,21.0869" fill="rgb(74,144,217)" stroke="none"/>
<polygon points="11.1180,21.9681 13.0167,23.8958 16.1481,19.5455" fill="rgb(74,144,217)" stroke="none"/>
<polygon points="13.0167,23.8958 18.3764,22.6080 17.3556,20.9745" fill="rgb(74,144,217)" stroke="none"/>
<polygon points="4.7878,32.1005 8.6778,32.1929 9.5755,31.5411" fill="rgb(74,144,217)" stroke="none"/>
<polygon points="9.5755,31.5411 14.8492,28.9856 9.8995,30.2104" fill="rgb(74,144,217)" stroke="none"/>
<polygon points="2.4770,28.9246 6.0681,24.9446 4.9540,25.1893" fill="rgb(74,144,217)" stroke="none"/>
<polygon points="57.1635,46.0097 59.3970,42.4578 57.7586,43.0297" fill="rgb(230,126,34)" stroke="none"/>
<polygon points="55.3351,45.8163 55.8475,43.0964 54.1017,42.6428" fill="rgb(230,126,34)" stroke="none"/>
<polygon points="13.0167,23.8958 14.3633,26.4284 18.3764,22.6080" fill="rgb(74,144,217)" stroke="none"/>
<polygon points="2.1624,29.4351 2.4770,28.9246 4.9540,25.1893" fill="rgb(74,144,217)" stroke="none"/>
<polygon points="57.1635,46.0097 57.7586,43.0297 55.8475,43.0964" fill="rgb(230,126,34)" stroke="none"/>
<polygon points="4.7878,32.1005 4.3389,32.4264 8.6778,32.1929" fill="rgb(74,144,217)" stroke="none"/>
<polygon points="7.4120,25.5320 13.0167,23.8958 11.1180,21.9681" fill="rgb(74,144,217)" stroke="none"/>
<polygon points="9.5755,28.5055 14.8492,28.9856 14.3633,26.4284" fill="rgb(74,144,217)" stroke="none"/>
<polygon points="9.5755,28.5055 9.8995,30.2104 14.8492,28.9856" fill="rgb(74,144,217)" stroke="none"/>
<polygon points="52.5758,40.6854 52.9209,41.7726 51.0971,38.1641" fill="rgb(230,126,34)" stroke="none"/>
<polygon points="4.7878,32.1005 9.5755,31.5411 9.8995,30.2104" fill="rgb(74,144,217)" stroke="none"/>
<polygon points="8.6778,26.8172 14.3633,26.4284 13.0167,23.8958" fill="rgb(74,144,217)" stroke="none"/>
<polygon points="52.5758,40.6854 51.0971,38.1641 50.5795,36.5332" fill="rgb(230,126,34)" stroke="none"/>
<polygon points="60.3874,41.5119 62.4703,36.1179 62.2969,37.7729" fill="rgb(230,126,34)" stroke="none"/>
<polygon points="3.0340,28.8022 7.4120,25.5320 6.0681,24.9446" fill="rgb(74,144,217)" stroke="none"/>
<polygon points="2.4770,28.9246 3.0340,28.8022 6.0681,24.9446" fill="rgb(74,144,217)" stroke="none"/>
<polygon points="7.4120,25.5320 8.6778,26.8172 13.0167,23.8958" fill="rgb(74,144,217)" stroke="none"/>
<polygon points="8.6778,26.8172 9.5755,28.5055 14.3633,26.4284" fill="rgb(74,144,217)" stroke="none"/>
<polygon points="60.3874,41.5119 60.8112,39.1918 59.3970,42.4578" fill="rgb(230,126,34)" stroke="none"/>
<polygon points="62.4703,36.1179 63.8637,30.7642 64.4375,31.8273" fill="rgb(230,126,34)" stroke="none"/>
<polygon points="4.7878,32.1005 9.8995,30.2104 4.9497,31.4351" fill="rgb(74,144,217)" stroke="none"/>
<polygon points="4.7878,30.5827 9.8995,30.2104 9.5755,28.5055" fill="rgb(74,144,217)" stroke="none"/>
<polygon points="3.7060,29.0960 8.6778,26.8172 7.4120,25.5320" fill="rgb(74,144,217)" stroke="none"/>
<polygon points="3.0340,28.8022 3.7060,29.0960 7.4120,25.5320" fill="rgb(74,144,217)" stroke="none"/>
<polygon points="2.1624,29.4351 0.0000,32.6599 2.4770,28.9246" fill="rgb(74,144,217)" stroke="none"/>
<polygon points="52.9209,41.7726 54.1017,42.6428 52.8682,39.4692" fill="rgb(230,126,34)" stroke="none"/>
<polygon points="4.7878,30.5827 9.5755,28.5055 8.6778,26.8172" fill="rgb(74,144,217)" stroke="none"/>
<polygon points="4.7878,30.5827 4.9497,31.4351 9.8995,30.2104" fill="rgb(74,144,217)" stroke="none"/>
<polygon points="60.3874,41.5119 62.2969,37.7729 60.8112,39.1918" fill="rgb(230,126,34)" stroke="none"/>
<polygon points="4.7878,32.1005 0.0000,32.6599 4.3389,32.4264" fill="rgb(74,144,217)" stroke="none"/>
<polygon points="57.7586,43.0297 59.3970,42.4578 60.8112,39.1918" fill="rgb(230,126,34)" stroke="none"/>
<polygon points="50.5795,36.5332 48.5831,32.3810 48.9308,31.2858" fill="rgb(230,126,34)" stroke="none"/>
<polygon points="3.7060,29.0960 4.3389,29.7385 8.6778,26.8172" fill="rgb(74,144,217)" stroke="none"/>
<polygon points="2.4770,28.9246 0.0000,32.6599 3.0340,28.8022" fill="rgb(74,144,217)" stroke="none"/>
<polygon points="4.3389,29.7385 4.7878,30.5827 8.6778,26.8172" fill="rgb(74,144,217)" stroke="none"/>
<polygon points="62.2969,37.7729 62.4703,36.1179 64.5539,32.9387" fill="rgb(230,126,34)" stroke="none"/>
<polygon points="54.1017,42.6428 55.8475,43.0964 52.8682,39.4692" fill="rgb(230,126,34)" stroke="none"/>
<polygon points="62.4703,36.1179 64.4375,31.8273 64.5539,32.9387" fill="rgb(230,126,34)" stroke="none"/>
<polygon points="52.9209,41.7726 52.8682,39.4692 51.0971,38.1641" fill="rgb(230,126,34)" stroke="none"/>
<polygon points="4.7878,32.1005 4.9497,31.4351 0.0000,32.6599" fill="rgb(74,144,217)" stroke="none"/>
<polygon points="3.0340,28.8022 0.0000,32.6599 3.7060,29.0960" fill="rgb(74,144,217)" stroke="none"/>
<polygon points="2.1624,29.4351 0.0000,32.6599 0.0000,32.6599" fill="rgb(74,144,217)" stroke="none"/>
<polygon points="55.8475,43.0964 57.7586,43.0297 58.3536,40.0496" fill="rgb(230,126,34)" stroke="none"/>
<polygon points="4.7878,30.5827 0.0000,32.6599 4.9497,31.4351" fill="rgb(74,144,217)" stroke="none"/>
<polygon points="3.7060,29.0960 0.0000,32.6599 4.3389,29.7385" fill="rgb(74,144,217)" stroke="none"/>
<polygon points="50.5795,36.5332 51.0971,38.1641 48.6996,33.4924" fill="rgb(230,126,34)" stroke="none"/>
<polygon points="4.3389,29.7385 0.0000,32.6599 4.7878,30.5827" fill="rgb(74,144,217)" stroke="none"/>
<polygon points="50.5795,36.5332 48.6996,33.4924 48.5831,32.3810" fill="rgb(230,126,34)" stroke="none"/>
<polygon points="57.7586,43.0297 60.8112,39.1918 58.3536,40.0496" fill="rgb(230,126,34)" stroke="none"/>
<polygon points="55.8475,43.0964 55.4870,40.1497 52.8682,39.4692" fill="rgb(230,126,34)" stroke="none"/>
<polygon points="62.2969,37.7729 64.5539,32.9387 64.2063,34.0340" fill="rgb(230,126,34)" stroke="none"/>
<polygon points="55.8475,43.0964 58.3536,40.0496 55.4870,40.1497" fill="rgb(230,126,34)" stroke="none"/>
<polygon points="62.2969,37.7729 63.4148,35.0493 60.8112,39.1918" fill="rgb(230,126,34)" stroke="none"/>
<polygon points="51.0971,38.1641 49.2733,34.5555 48.6996,33.4924" fill="rgb(230,126,34)" stroke="none"/>
<polygon points="62.2969,37.7729 64.2063,34.0340 63.4148,35.0493" fill="rgb(230,126,34)" stroke="none"/>
<polygon points="51.0971,38.1641 52.8682,39.4692 50.2711,35.5084" fill="rgb(230,126,34)" stroke="none"/>
<polygon points="51.0971,38.1641 50.2711,35.5084 49.2733,34.5555" fill="rgb(230,126,34)" stroke="none"/>
<polygon points="58.3536,40.0496 60.8112,39.1918 60.7072,36.6125" fill="rgb(230,126,34)" stroke="none"/>
<polygon points="60.8112,39.1918 63.4148,35.0493 62.2254,35.9258" fill="rgb(230,126,34)" stroke="none"/>
<polygon points="52.8682,39.4692 55.4870,40.1497 53.2852,36.8717" fill="rgb(230,126,34)" stroke="none"/>
<polygon points="52.8682,39.4692 51.6348,36.2957 50.2711,35.5084" fill="rgb(230,126,34)" stroke="none"/>
<polygon points="55.4870,40.1497 58.3536,40.0496 57.0516,37.2702" fill="rgb(230,126,34)" stroke="none"/>
<polygon points="60.8112,39.1918 62.2254,35.9258 60.7072,36.6125" fill="rgb(230,126,34)" stroke="none"/>
<polygon points="52.8682,39.4692 53.2852,36.8717 51.6348,36.2957" fill="rgb(230,126,34)" stroke="none"/>
<polygon points="58.3536,40.0496 60.7072,36.6125 58.9486,37.0695" fill="rgb(230,126,34)" stroke="none"/>
<polygon points="55.4870,40.1497 55.1265,37.2030 53.2852,36.8717" fill="rgb(230,126,34)" stroke="none"/>
<polygon points="58.3536,40.0496 58.9486,37.0695 57.0516,37.2702" fill="rgb(230,126,34)" stroke="none"/>
<polygon points="55.4870,40.1497 57.0516,37.2702 55.1265,37.2030" fill="rgb(230,126,34)" stroke="none"/>
<polygon points="83.1647,60.1865 87.8617,59.8882 89.6730,59.8363" fill="rgb(46,204,113)" stroke="none"/>
<polygon points="74.7860,44.4285 78.5015,38.8256 77.3395,40.0986" fill="rgb(46,204,113)" stroke="none"/>
<polygon points="83.1647,60.1865 89.6730,59.8363 91.2041,59.1540" fill="rgb(46,204,113)" stroke="none"/>
<polygon points="74.7860,44.4285 80.0326,38.1433 78.5015,38.8256" fill="rgb(46,204,113)" stroke="none"/>
<polygon points="85.1845,58.7200 91.2041,59.1540 92.3662,57.8810" fill="rgb(46,204,113)" stroke="none"/>
<polygon points="85.1845,58.7200 83.1647,60.1865 91.2041,59.1540" fill="rgb(46,204,113)" stroke="none"/>
<polygon points="74.7860,44.4285 77.2928,43.8778 80.0326,38.1433" fill="rgb(46,204,113)" stroke="none"/>
<polygon points="77.2928,43.8778 81.8439,38.0913 80.0326,38.1433" fill="rgb(46,204,113)" stroke="none"/>
<polygon points="85.1845,58.7200 92.3662,57.8810 93.0915,56.0912" fill="rgb(46,204,113)" stroke="none"/>
<polygon points="77.2928,43.8778 83.8300,38.6728 81.8439,38.0913" fill="rgb(46,204,113)" stroke="none"/>
<polygon points="70.1269,51.5628 71.0705,50.0314 74.7860,44.4285" fill="rgb(46,204,113)" stroke="none"/>
<polygon points="71.0705,50.0314 77.2928,43.8778 74.7860,44.4285" fill="rgb(46,204,113)" stroke="none"/>
<polygon points="78.0029,59.5591 83.1647,60.1865 85.1845,58.7200" fill="rgb(46,204,113)" stroke="none"/>
<polygon points="78.0029,59.5591 76.6563,60.5368 83.1647,60.1865" fill="rgb(46,204,113)" stroke="none"/>
<polygon points="85.1845,58.7200 93.0915,56.0912 85.9135,55.7259" fill="rgb(46,204,113)" stroke="none"/>
<polygon points="85.9135,55.7259 93.0915,56.0912 93.3381,53.8888" fill="rgb(46,204,113)" stroke="none"/>
<polygon points="77.2928,43.8778 80.3166,45.1996 83.8300,38.6728" fill="rgb(46,204,113)" stroke="none"/>
<polygon points="80.3166,45.1996 85.8756,39.8538 83.8300,38.6728" fill="rgb(46,204,113)" stroke="none"/>
<polygon points="85.9135,55.7259 93.3381,53.8888 93.0915,51.4016" fill="rgb(46,204,113)" stroke="none"/>
<polygon points="78.0029,59.5591 85.1845,58.7200 85.9135,55.7259" fill="rgb(46,204,113)" stroke="none"/>
<polygon points="71.0705,50.0314 72.7418,49.6643 77.2928,43.8778" fill="rgb(46,204,113)" stroke="none"/>
<polygon points="80.3166,45.1996 87.8617,41.5657 85.8756,39.8538" fill="rgb(46,204,113)" stroke="none"/>
<polygon points="72.7418,49.6643 80.3166,45.1996 77.2928,43.8778" fill="rgb(46,204,113)" stroke="none"/>
<polygon points="85.1845,51.8900 93.0915,51.4016 92.3662,48.7743" fill="rgb(46,204,113)" stroke="none"/>
<polygon points="85.1845,51.8900 85.9135,55.7259 93.0915,51.4016" fill="rgb(46,204,113)" stroke="none"/>
<polygon points="83.1647,48.0912 89.6730,43.7092 87.8617,41.5657" fill="rgb(46,204,113)" stroke="none"/>
<polygon points="85.1845,51.8900 92.3662,48.7743 91.2041,46.1595" fill="rgb(46,204,113)" stroke="none"/>
<polygon points="80.3166,45.1996 83.1647,48.0912 87.8617,41.5657" fill="rgb(46,204,113)" stroke="none"/>
<polygon points="83.1647,48.0912 91.2041,46.1595 89.6730,43.7092" fill="rgb(46,204,113)" stroke="none"/>
<polygon points="70.8212,60.3982 76.6563,60.5368 78.0029,59.5591" fill="rgb(46,204,113)" stroke="none"/>
<polygon points="78.0029,59.5591 85.9135,55.7259 78.4889,57.5630" fill="rgb(46,204,113)" stroke="none"/>
<polygon points="83.1647,48.0912 85.1845,51.8900 91.2041,46.1595" fill="rgb(46,204,113)" stroke="none"/>
<polygon points="66.8832,56.4000 67.3551,55.6343 71.0705,50.0314" fill="rgb(46,204,113)" stroke="none"/>
<polygon points="68.1907,55.4508 72.7418,49.6643 71.0705,50.0314" fill="rgb(46,204,113)" stroke="none"/>
<polygon points="72.7418,49.6643 74.7576,50.5455 80.3166,45.1996" fill="rgb(46,204,113)" stroke="none"/>
<polygon points="70.8212,60.3982 70.1480,60.8870 76.6563,60.5368" fill="rgb(46,204,113)" stroke="none"/>
<polygon points="74.7576,50.5455 83.1647,48.0912 80.3166,45.1996" fill="rgb(46,204,113)" stroke="none"/>
<polygon points="78.0029,55.0058 85.9135,55.7259 85.1845,51.8900" fill="rgb(46,204,113)" stroke="none"/>
<polygon points="78.0029,55.0058 78.4889,57.5630 85.9135,55.7259" fill="rgb(46,204,113)" stroke="none"/>
<polygon points="67.3551,55.6343 68.1907,55.4508 71.0705,50.0314" fill="rgb(46,204,113)" stroke="none"/>
<polygon points="70.8212,60.3982 78.0029,59.5591 78.4889,57.5630" fill="rgb(46,204,113)" stroke="none"/>
<polygon points="76.6563,52.4732 85.1845,51.8900 83.1647,48.0912" fill="rgb(46,204,113)" stroke="none"/>
<polygon points="74.7576,50.5455 76.6563,52.4732 83.1647,48.0912" fill="rgb(46,204,113)" stroke="none"/>
<polygon points="69.1986,55.8914 74.7576,50.5455 72.7418,49.6643" fill="rgb(46,204,113)" stroke="none"/>
<polygon points="76.6563,52.4732 78.0029,55.0058 85.1845,51.8900" fill="rgb(46,204,113)" stroke="none"/>
<polygon points="68.1907,55.4508 69.1986,55.8914 72.7418,49.6643" fill="rgb(46,204,113)" stroke="none"/>
<polygon points="66.8832,57.5724 63.6396,61.2372 66.8832,56.4000" fill="rgb(46,204,113)" stroke="none"/>
<polygon points="70.8212,60.3982 78.4889,57.5630 71.0642,59.4001" fill="rgb(46,204,113)" stroke="none"/>
<polygon points="70.8212,58.1215 78.4889,57.5630 78.0029,55.0058" fill="rgb(46,204,113)" stroke="none"/>
<polygon points="69.1986,55.8914 76.6563,52.4732 74.7576,50.5455" fill="rgb(46,204,113)" stroke="none"/>
<polygon points="66.8832,56.4000 63.6396,61.2372 67.3551,55.6343" fill="rgb(46,204,113)" stroke="none"/>
<polygon points="70.8212,58.1215 71.0642,59.4001 78.4889,57.5630" fill="rgb(46,204,113)" stroke="none"/>
<polygon points="70.1480,56.8552 78.0029,55.0058 76.6563,52.4732" fill="rgb(46,204,113)" stroke="none"/>
<polygon points="123.2422,57.3796 123.9142,57.6733 127.2792,57.1548" fill="rgb(231,76,60)" stroke="none"/>
<polygon points="124.9959,59.1601 125.1579,60.0125 127.2792,57.1548" fill="rgb(231,76,60)" stroke="none"/>
<polygon points="123.9142,57.6733 124.5471,58.3159 127.2792,57.1548" fill="rgb(231,76,60)" stroke="none"/>
<polygon points="124.5471,58.3159 124.9959,59.1601 127.2792,57.1548" fill="rgb(231,76,60)" stroke="none"/>
<polygon points="70.8212,60.3982 63.6396,61.2372 70.1480,60.8870" fill="rgb(46,204,113)" stroke="none"/>
<polygon points="69.1986,55.8914 70.1480,56.8552 76.6563,52.4732" fill="rgb(46,204,113)" stroke="none"/>
<polygon points="70.1480,56.8552 70.8212,58.1215 78.0029,55.0058" fill="rgb(46,204,113)" stroke="none"/>
<polygon points="67.3551,55.6343 63.6396,61.2372 68.1907,55.4508" fill="rgb(46,204,113)" stroke="none"/>
<polygon points="66.8832,57.5724 63.6396,61.2372 63.6396,61.2372" fill="rgb(46,204,113)" stroke="none"/>
<polygon points="70.8212,60.3982 71.0642,59.4001 63.6396,61.2372" fill="rgb(46,204,113)" stroke="none"/>
<polygon points="68.1907,55.4508 63.6396,61.2372 69.1986,55.8914" fill="rgb(46,204,113)" stroke="none"/>
<polygon points="70.8212,58.1215 63.6396,61.2372 71.0642,59.4001" fill="rgb(46,204,113)" stroke="none"/>
<polygon points="69.1986,55.8914 63.6396,61.2372 70.1480,56.8552" fill="rgb(46,204,113)" stroke="none"/>
<polygon points="70.1480,56.8552 63.6396,61.2372 70.8212,58.1215" fill="rgb(46,204,113)" stroke="none"/>
<polygon points="123.2422,57.3796 119.2052,57.6044 123.9142,57.6733" fill="rgb(231,76,60)" stroke="none"/>
<polygon points="124.9959,60.6779 125.1579,60.0125 123.0366,62.8702" fill="rgb(231,76,60)" stroke="none"/>
<polygon points="111.1311,70.2691 108.9029,67.2066 109.9236,68.8401" fill="rgb(231,76,60)" stroke="none"/>
<polygon points="124.9959,59.1601 122.7126,61.1654 125.1579,60.0125" fill="rgb(231,76,60)" stroke="none"/>
<polygon points="123.9142,57.6733 121.8149,59.4770 124.5471,58.3159" fill="rgb(231,76,60)" stroke="none"/>
<polygon points="124.5471,58.3159 122.7126,61.1654 124.9959,59.1601" fill="rgb(231,76,60)" stroke="none"/>
<polygon points="124.9959,60.6779 123.0366,62.8702 122.7126,64.2010" fill="rgb(231,76,60)" stroke="none"/>
<polygon points="123.9142,57.6733 119.2052,57.6044 120.5491,58.1919" fill="rgb(231,76,60)" stroke="none"/>
<polygon points="122.7126,61.1654 123.0366,62.8702 125.1579,60.0125" fill="rgb(231,76,60)" stroke="none"/>
<polygon points="107.6446,60.5854 107.4802,62.0537 107.6446,63.7118" fill="rgb(231,76,60)" stroke="none"/>
<polygon points="123.9142,57.6733 120.5491,58.1919 121.8149,59.4770" fill="rgb(231,76,60)" stroke="none"/>
<polygon points="117.3713,72.0959 108.1282,65.4634 108.9029,67.2066" fill="rgb(231,76,60)" stroke="none"/>
<polygon points="124.5471,58.3159 121.8149,59.4770 122.7126,61.1654" fill="rgb(231,76,60)" stroke="none"/>
<polygon points="117.3713,72.0959 108.9029,67.2066 111.1311,70.2691" fill="rgb(231,76,60)" stroke="none"/>
<polygon points="117.3713,72.0959 111.1311,70.2691 112.4552,71.4104" fill="rgb(231,76,60)" stroke="none"/>
<polygon points="117.3713,72.0959 112.4552,71.4104 113.8189,72.1977" fill="rgb(231,76,60)" stroke="none"/>
<polygon points="122.7126,64.2010 123.0366,62.8702 120.9153,65.7280" fill="rgb(231,76,60)" stroke="none"/>
<polygon points="119.2052,57.6044 117.1840,58.7105 120.5491,58.1919" fill="rgb(231,76,60)" stroke="none"/>
<polygon points="117.3713,72.0959 113.8189,72.1977 115.1430,72.5854" fill="rgb(231,76,60)" stroke="none"/>
<polygon points="108.9029,58.5436 108.1282,59.3923 107.6446,60.5854" fill="rgb(231,76,60)" stroke="none"/>
<polygon points="122.7126,64.2010 120.9153,65.7280 120.4293,67.7241" fill="rgb(231,76,60)" stroke="none"/>
<polygon points="118.1460,65.1761 107.6446,63.7118 108.1282,65.4634" fill="rgb(231,76,60)" stroke="none"/>
<polygon points="122.7126,61.1654 120.9153,65.7280 123.0366,62.8702" fill="rgb(231,76,60)" stroke="none"/>
<polygon points="120.5491,58.1919 117.1840,58.7105 121.8149,59.4770" fill="rgb(231,76,60)" stroke="none"/>
<polygon points="119.2052,57.6044 115.1682,57.8293 117.1840,58.7105" fill="rgb(231,76,60)" stroke="none"/>
<polygon points="113.8189,59.2291 107.6446,60.5854 107.6446,63.7118" fill="rgb(231,76,60)" stroke="none"/>
<polygon points="117.3713,72.0959 115.1430,72.5854 116.3505,72.5507" fill="rgb(231,76,60)" stroke="none"/>
<polygon points="121.8149,59.4770 120.4293,63.1707 122.7126,61.1654" fill="rgb(231,76,60)" stroke="none"/>
<polygon points="118.7939,68.5857 108.1282,65.4634 117.3713,72.0959" fill="rgb(231,76,60)" stroke="none"/>
<polygon points="122.7126,61.1654 120.4293,63.1707 120.9153,65.7280" fill="rgb(231,76,60)" stroke="none"/>
<polygon points="121.8149,59.4770 117.1840,58.7105 119.0827,60.6382" fill="rgb(231,76,60)" stroke="none"/>
<polygon points="121.8149,59.4770 119.0827,60.6382 120.4293,63.1707" fill="rgb(231,76,60)" stroke="none"/>
<polygon points="113.8189,59.2291 108.9029,58.5436 107.6446,60.5854" fill="rgb(231,76,60)" stroke="none"/>
<polygon points="120.4293,67.7241 120.9153,65.7280 118.6296,70.0540" fill="rgb(231,76,60)" stroke="none"/>
<polygon points="115.1682,57.8293 109.9236,58.0887 111.1311,58.0541" fill="rgb(231,76,60)" stroke="none"/>
<polygon points="120.4293,67.7241 118.6296,70.0540 118.1460,71.2472" fill="rgb(231,76,60)" stroke="none"/>
<polygon points="115.1682,57.8293 112.4552,58.4417 117.1840,58.7105" fill="rgb(231,76,60)" stroke="none"/>
<polygon points="118.1460,65.1761 108.1282,65.4634 118.7939,68.5857" fill="rgb(231,76,60)" stroke="none"/>
<polygon points="118.6296,70.0540 117.3713,72.0959 118.1460,71.2472" fill="rgb(231,76,60)" stroke="none"/>
<polygon points="118.1460,65.1761 113.8189,59.2291 107.6446,63.7118" fill="rgb(231,76,60)" stroke="none"/>
<polygon points="115.1682,57.8293 111.1311,58.0541 112.4552,58.4417" fill="rgb(231,76,60)" stroke="none"/>
<polygon points="113.8189,59.2291 109.9236,58.0887 108.9029,58.5436" fill="rgb(231,76,60)" stroke="none"/>
<polygon points="120.4293,63.1707 118.6296,66.9276 120.9153,65.7280" fill="rgb(231,76,60)" stroke="none"/>
<polygon points="118.7939,68.5857 117.3713,72.0959 118.6296,70.0540" fill="rgb(231,76,60)" stroke="none"/>
<polygon points="120.9153,65.7280 118.7939,68.5857 118.6296,70.0540" fill="rgb(231,76,60)" stroke="none"/>
<polygon points="117.1840,58.7105 115.1430,60.3704 119.0827,60.6382" fill="rgb(231,76,60)" stroke="none"/>
<polygon points="113.8189,59.2291 111.1311,58.0541 109.9236,58.0887" fill="rgb(231,76,60)" stroke="none"/>
<polygon points="117.1840,58.7105 112.4552,58.4417 113.8189,59.2291" fill="rgb(231,76,60)" stroke="none"/>
<polygon points="119.0827,60.6382 117.3713,63.4329 120.4293,63.1707" fill="rgb(231,76,60)" stroke="none"/>
<polygon points="120.9153,65.7280 118.6296,66.9276 118.7939,68.5857" fill="rgb(231,76,60)" stroke="none"/>
<polygon points="113.8189,59.2291 112.4552,58.4417 111.1311,58.0541" fill="rgb(231,76,60)" stroke="none"/>
<polygon points="117.1840,58.7105 113.8189,59.2291 115.1430,60.3704" fill="rgb(231,76,60)" stroke="none"/>
<polygon points="120.4293,63.1707 118.1460,65.1761 118.6296,66.9276" fill="rgb(231,76,60)" stroke="none"/>
<polygon points="119.0827,60.6382 115.1430,60.3704 116.3505,61.7993" fill="rgb(231,76,60)" stroke="none"/>
<polygon points="120.4293,63.1707 117.3713,63.4329 118.1460,65.1761" fill="rgb(231,76,60)" stroke="none"/>
<polygon points="119.0827,60.6382 116.3505,61.7993 117.3713,63.4329" fill="rgb(231,76,60)" stroke="none"/>
<polygon points="118.1460,65.1761 118.7939,68.5857 118.6296,66.9276" fill="rgb(231,76,60)" stroke="none"/>
<polygon points="117.3713,63.4329 115.1430,60.3704 113.8189,59.2291" fill="rgb(231,76,60)" stroke="none"/>
<polygon points="117.3713,63.4329 113.8189,59.2291 118.1460,65.1761" fill="rgb(231,76,60)" stroke="none"/>
<polygon points="117.3713,63.4329 116.3505,61.7993 115.1430,60.3704" fill="rgb(231,76,60)" stroke="none"/>
<polyline points="118.7939,68.5857 118.6296,66.9276" fill="none" stroke="black"/>
<polyline points="9.9079,17.7188 9.1332,18.5675" fill="none" stroke="black"/>
<polyline points="2.0059,-4.9494 0.6819,-6.0907" fill="none" stroke="black"/>
<polyline points="3.2135,7.2310 4.2342,6.7761" fill="none" stroke="black"/>
<polyline points="108.1282,59.3923 107.6446,60.5854" fill="none" stroke="black"/>
<polyline points="92.3662,48.7743 91.2041,46.1595" fill="none" stroke="black"/>
<polyline points="49.2733,34.5555 48.6996,33.4924" fill="none" stroke="black"/>
<polyline points="63.8637,30.7642 64.4375,31.8273" fill="none" stroke="black"/>
<polyline points="115.1682,57.8293 119.2052,57.6044" fill="none" stroke="black"/>
<polyline points="63.6396,61.2372 71.0642,59.4001" fill="none" stroke="black"/>
<polyline points="85.8756,39.8538 83.8300,38.6728" fill="none" stroke="black"/>
<polyline points="50.2711,35.5084 49.2733,34.5555" fill="none" stroke="black"/>
<polyline points="120.4293,67.7241 122.7126,64.2010" fill="none" stroke="black"/>
<polyline points="4.2342,-1.8869 3.2135,-3.5204" fill="none" stroke="black"/>
<polyline points="93.3381,53.8888 85.9135,55.7259" fill="none" stroke="black"/>
<polyline points="0.0000,32.6599 0.0000,32.6599" fill="none" stroke="black"/>
<polyline points="0.7071,4.4907 -4.2426,5.7155" fill="none" stroke="black"/>
<polyline points="92.3662,57.8810 93.0915,56.0912" fill="none" stroke="black"/>
<polyline points="56.5685,48.9898 56.5685,48.9898" fill="none" stroke="black"/>
<polyline points="77.3395,40.0986 74.7860,44.4285" fill="none" stroke="black"/>
<polyline points="107.6446,60.5854 107.4802,62.0537" fill="none" stroke="black"/>
<polyline points="58.9486,37.0695 57.0516,37.2702" fill="none" stroke="black"/>
<polyline points="3.2135,-3.5204 2.0059,-4.9494" fill="none" stroke="black"/>
<polyline points="18.3764,31.2710 19.1510,30.4223" fill="none" stroke="black"/>
<polyline points="93.0915,56.0912 93.3381,53.8888" fill="none" stroke="black"/>
<polyline points="115.1430,72.5854 116.3505,72.5507" fill="none" stroke="black"/>
<polyline points="118.6296,66.9276 118.1460,65.1761" fill="none" stroke="black"/>
<polyline points="5.6569,3.2660 5.4925,1.6079" fill="none" stroke="black"/>
<polyline points="8.6778,32.1929 4.3389,32.4264" fill="none" stroke="black"/>
<polyline points="-4.2426,5.7155 -9.1924,6.9402" fill="none" stroke="black"/>
<polyline points="55.1265,37.2030 53.2852,36.8717" fill="none" stroke="black"/>
<polyline points="113.8189,59.2291 112.4552,58.4417" fill="none" stroke="black"/>
<polyline points="118.1460,71.2472 118.6296,70.0540" fill="none" stroke="black"/>
<polyline points="78.4889,57.5630 71.0642,59.4001" fill="none" stroke="black"/>
<polyline points="91.2041,59.1540 92.3662,57.8810" fill="none" stroke="black"/>
<polyline points="118.7939,68.5857 118.6296,66.9276" fill="none" stroke="black"/>
<polyline points="87.8617,41.5657 85.8756,39.8538" fill="none" stroke="black"/>
<polyline points="111.1311,58.0541 109.9236,58.0887" fill="none" stroke="black"/>
<polyline points="122.7126,64.2010 124.9959,60.6779" fill="none" stroke="black"/>
<polyline points="63.8637,30.7642 62.4703,36.1179" fill="none" stroke="black"/>
<polyline points="-14.1421,8.1650 -9.1924,6.9402" fill="none" stroke="black"/>
<polyline points="113.8189,72.1977 115.1430,72.5854" fill="none" stroke="black"/>
<polyline points="5.4925,1.6079 5.0089,-0.1437" fill="none" stroke="black"/>
<polyline points="4.2342,6.7761 5.0089,5.9274" fill="none" stroke="black"/>
<polyline points="118.6296,70.0540 118.7939,68.5857" fill="none" stroke="black"/>
<polyline points="13.4603,17.6169 12.1362,17.2293" fill="none" stroke="black"/>
<polyline points="85.9135,55.7259 78.4889,57.5630" fill="none" stroke="black"/>
<polyline points="80.0326,38.1433 78.5015,38.8256" fill="none" stroke="black"/>
<polyline points="119.2052,57.6044 123.2422,57.3796" fill="none" stroke="black"/>
<polyline points="109.9236,58.0887 108.9029,58.5436" fill="none" stroke="black"/>
<polyline points="91.2041,46.1595 89.6730,43.7092" fill="none" stroke="black"/>
<polyline points="-4.2342,-6.7761 -5.0089,-5.9274" fill="none" stroke="black"/>
<polyline points="116.3505,72.5507 117.3713,72.0959" fill="none" stroke="black"/>
<polyline points="115.1430,60.3704 113.8189,59.2291" fill="none" stroke="black"/>
<polyline points="-14.1421,8.1650 -14.1421,8.1650" fill="none" stroke="black"/>
<polyline points="0.0000,32.6599 4.9497,31.4351" fill="none" stroke="black"/>
<polyline points="120.9153,65.7280 123.0366,62.8702" fill="none" stroke="black"/>
<polyline points="-5.0089,-5.9274 -7.6549,-1.5095" fill="none" stroke="black"/>
<polyline points="107.6446,63.7118 108.1282,65.4634" fill="none" stroke="black"/>
<polyline points="-14.1421,8.1650 -9.8032,7.9315" fill="none" stroke="black"/>
<polyline points="63.6396,61.2372 63.6396,61.2372" fill="none" stroke="black"/>
<polyline points="118.1460,65.1761 117.3713,63.4329" fill="none" stroke="black"/>
<polyline points="117.3713,63.4329 116.3505,61.7993" fill="none" stroke="black"/>
<polyline points="118.7939,68.5857 118.6296,70.0540" fill="none" stroke="black"/>
<polyline points="53.2852,36.8717 51.6348,36.2957" fill="none" stroke="black"/>
<polyline points="89.6730,43.7092 87.8617,41.5657" fill="none" stroke="black"/>
<polyline points="0.0000,32.6599 4.3389,32.4264" fill="none" stroke="black"/>
<polyline points="19.7990,27.7609 19.6346,26.1028" fill="none" stroke="black"/>
<polyline points="19.1510,24.3512 18.3764,22.6080" fill="none" stroke="black"/>
<polyline points="81.8439,38.0913 80.0326,38.1433" fill="none" stroke="black"/>
<polyline points="60.7072,36.6125 58.9486,37.0695" fill="none" stroke="black"/>
<polyline points="89.6730,59.8363 91.2041,59.1540" fill="none" stroke="black"/>
<polyline points="5.6569,3.2660 0.7071,4.4907" fill="none" stroke="black"/>
<polyline points="19.7990,27.7609 14.8492,28.9856" fill="none" stroke="black"/>
<polyline points="19.6346,29.2292 19.7990,27.7609" fill="none" stroke="black"/>
<polyline points="51.6348,36.2957 50.2711,35.5084" fill="none" stroke="black"/>
<polyline points="17.3556,20.9745 16.1481,19.5455" fill="none" stroke="black"/>
<polyline points="118.1460,71.2472 120.4293,67.7241" fill="none" stroke="black"/>
<polyline points="0.6819,-6.0907 -0.6819,-6.8780" fill="none" stroke="black"/>
<polyline points="93.0915,51.4016 92.3662,48.7743" fill="none" stroke="black"/>
<polyline points="48.9308,31.2858 50.5795,36.5332" fill="none" stroke="black"/>
<polyline points="-5.4643,7.6980 -9.8032,7.9315" fill="none" stroke="black"/>
<polyline points="108.1282,65.4634 108.9029,67.2066" fill="none" stroke="black"/>
<polyline points="117.3713,72.0959 118.1460,71.2472" fill="none" stroke="black"/>
<polyline points="14.8492,28.9856 9.8995,30.2104" fill="none" stroke="black"/>
<polyline points="62.2254,35.9258 60.8112,39.1918" fill="none" stroke="black"/>
<polyline points="64.4375,31.8273 64.5539,32.9387" fill="none" stroke="black"/>
<polyline points="83.8300,38.6728 81.8439,38.0913" fill="none" stroke="black"/>
<polyline points="48.6996,33.4924 48.5831,32.3810" fill="none" stroke="black"/>
<polyline points="56.5685,48.9898 57.9828,45.7238" fill="none" stroke="black"/>
<polyline points="127.2792,57.1548 125.1579,60.0125" fill="none" stroke="black"/>
<polyline points="63.6396,61.2372 71.0642,59.4001" fill="none" stroke="black"/>
<polyline points="62.2254,35.9258 60.7072,36.6125" fill="none" stroke="black"/>
<polyline points="118.7939,68.5857 120.9153,65.7280" fill="none" stroke="black"/>
<polyline points="9.1332,18.5675 7.4309,21.4540" fill="none" stroke="black"/>
<polyline points="108.9029,67.2066 109.9236,68.8401" fill="none" stroke="black"/>
<polyline points="60.8112,39.1918 59.3970,42.4578" fill="none" stroke="black"/>
<polyline points="63.4148,35.0493 62.2254,35.9258" fill="none" stroke="black"/>
<polyline points="118.1460,71.2472 118.6296,70.0540" fill="none" stroke="black"/>
<polyline points="12.1362,17.2293 10.9287,17.2639" fill="none" stroke="black"/>
<polyline points="127.2792,57.1548 123.2422,57.3796" fill="none" stroke="black"/>
<polyline points="64.2063,34.0340 63.4148,35.0493" fill="none" stroke="black"/>
<polyline points="-2.0059,-7.2656 -3.2135,-7.2310" fill="none" stroke="black"/>
<polyline points="9.8995,30.2104 4.9497,31.4351" fill="none" stroke="black"/>
<polyline points="14.8492,28.9856 9.8995,30.2104" fill="none" stroke="black"/>
<polyline points="9.8995,30.2104 4.9497,31.4351" fill="none" stroke="black"/>
<polyline points="123.0366,62.8702 125.1579,60.0125" fill="none" stroke="black"/>
<polyline points="111.1311,58.0541 109.9236,58.0887" fill="none" stroke="black"/>
<polyline points="107.4802,62.0537 107.6446,63.7118" fill="none" stroke="black"/>
<polyline points="118.1460,65.1761 117.3713,63.4329" fill="none" stroke="black"/>
<polyline points="5.0089,-0.1437 4.2342,-1.8869" fill="none" stroke="black"/>
<polyline points="18.3764,22.6080 17.3556,20.9745" fill="none" stroke="black"/>
<polyline points="120.9153,65.7280 123.0366,62.8702" fill="none" stroke="black"/>
<polyline points="111.1311,70.2691 112.4552,71.4104" fill="none" stroke="black"/>
<polyline points="-3.2135,-7.2310 -4.2342,-6.7761" fill="none" stroke="black"/>
<polyline points="-1.1254,7.4645 -5.4643,7.6980" fill="none" stroke="black"/>
<polyline points="-0.6819,-6.8780 -2.0059,-7.2656" fill="none" stroke="black"/>
<polyline points="76.6563,60.5368 70.1480,60.8870" fill="none" stroke="black"/>
<polyline points="112.4552,71.4104 113.8189,72.1977" fill="none" stroke="black"/>
<polyline points="117.3713,63.4329 116.3505,61.7993" fill="none" stroke="black"/>
<polyline points="78.5015,38.8256 77.3395,40.0986" fill="none" stroke="black"/>
<polyline points="5.4925,4.7343 5.6569,3.2660" fill="none" stroke="black"/>
<polyline points="14.8240,18.4042 13.4603,17.6169" fill="none" stroke="black"/>
<polyline points="16.1481,19.5455 14.8240,18.4042" fill="none" stroke="black"/>
<polyline points="17.3556,31.7259 18.3764,31.2710" fill="none" stroke="black"/>
<polyline points="19.6346,26.1028 19.1510,24.3512" fill="none" stroke="black"/>
<polyline points="19.1510,30.4223 19.6346,29.2292" fill="none" stroke="black"/>
<polyline points="-14.1421,8.1650 -9.1924,6.9402" fill="none" stroke="black"/>
<polyline points="125.1579,60.0125 124.9959,60.6779" fill="none" stroke="black"/>
<polyline points="62.2254,35.9258 60.8112,39.1918" fill="none" stroke="black"/>
<polyline points="13.0167,31.9594 8.6778,32.1929" fill="none" stroke="black"/>
<polyline points="48.5831,32.3810 48.9308,31.2858" fill="none" stroke="black"/>
<polyline points="123.0366,62.8702 125.1579,60.0125" fill="none" stroke="black"/>
<polyline points="59.3970,42.4578 57.9828,45.7238" fill="none" stroke="black"/>
<polyline points="113.8189,59.2291 112.4552,58.4417" fill="none" stroke="black"/>
<polyline points="118.6296,66.9276 118.1460,65.1761" fill="none" stroke="black"/>
<polyline points="60.8112,39.1918 59.3970,42.4578" fill="none" stroke="black"/>
<polyline points="93.3381,53.8888 85.9135,55.7259" fill="none" stroke="black"/>
<polyline points="19.7990,27.7609 14.8492,28.9856" fill="none" stroke="black"/>
<polyline points="5.0089,5.9274 5.4925,4.7343" fill="none" stroke="black"/>
<polyline points="-4.2426,5.7155 -9.1924,6.9402" fill="none" stroke="black"/>
<polyline points="0.0000,32.6599 4.9497,31.4351" fill="none" stroke="black"/>
<polyline points="115.1430,60.3704 113.8189,59.2291" fill="none" stroke="black"/>
<polyline points="10.9287,17.2639 9.9079,17.7188" fill="none" stroke="black"/>
<polyline points="59.3970,42.4578 57.9828,45.7238" fill="none" stroke="black"/>
<polyline points="83.1647,60.1865 76.6563,60.5368" fill="none" stroke="black"/>
<polyline points="93.3381,53.8888 93.0915,51.4016" fill="none" stroke="black"/>
<polyline points="64.5539,32.9387 64.2063,34.0340" fill="none" stroke="black"/>
<polyline points="0.7071,4.4907 -4.2426,5.7155" fill="none" stroke="black"/>
<polyline points="109.9236,58.0887 115.1682,57.8293" fill="none" stroke="black"/>
<polyline points="5.6569,3.2660 0.7071,4.4907" fill="none" stroke="black"/>
<polyline points="85.9135,55.7259 78.4889,57.5630" fill="none" stroke="black"/>
<polyline points="118.7939,68.5857 120.9153,65.7280" fill="none" stroke="black"/>
<polyline points="112.4552,58.4417 111.1311,58.0541" fill="none" stroke="black"/>
<polyline points="57.0516,37.2702 55.1265,37.2030" fill="none" stroke="black"/>
<polyline points="108.9029,58.5436 108.1282,59.3923" fill="none" stroke="black"/>
<polyline points="116.3505,61.7993 115.1430,60.3704" fill="none" stroke="black"/>
<polyline points="56.5685,48.9898 57.9828,45.7238" fill="none" stroke="black"/>
<polyline points="116.3505,61.7993 115.1430,60.3704" fill="none" stroke="black"/>
<polyline points="109.9236,68.8401 111.1311,70.2691" fill="none" stroke="black"/>
<polyline points="78.4889,57.5630 71.0642,59.4001" fill="none" stroke="black"/>
<polyline points="112.4552,58.4417 111.1311,58.0541" fill="none" stroke="black"/>
<polyline points="63.6396,61.2372 70.1480,60.8870" fill="none" stroke="black"/>
<polyline points="0.0000,32.6599 2.1624,29.4351" fill="none" stroke="#999" stroke-dasharray="1.2728,1.2728"/>
<polyline points="2.0059,7.2656 -1.1254,7.4645" fill="none" stroke="#999" stroke-dasharray="1.2728,1.2728"/>
<polyline points="4.9540,25.1893 4.3248,26.2102" fill="none" stroke="#999" stroke-dasharray="1.2728,1.2728"/>
<polyline points="87.8617,59.8882 83.1647,60.1865" fill="none" stroke="#999" stroke-dasharray="1.2728,1.2728"/>
<polyline points="53.1454,39.6301 54.5722,44.8376" fill="none" stroke="#999" stroke-dasharray="1.2728,1.2728"/>
<polyline points="-11.9797,4.9402 -11.9797,5.7218" fill="none" stroke="#999" stroke-dasharray="1.2728,1.2728"/>
<polyline points="74.7860,44.4285 70.1269,51.5628" fill="none" stroke="#999" stroke-dasharray="1.2728,1.2728"/>
<polyline points="-14.1421,8.1650 -11.9797,5.7218" fill="none" stroke="#999" stroke-dasharray="1.2728,1.2728"/>
<polyline points="2.0059,7.2656 3.2135,7.2310" fill="none" stroke="#999" stroke-dasharray="1.2728,1.2728"/>
<polyline points="87.8617,59.8882 89.6730,59.8363" fill="none" stroke="#999" stroke-dasharray="1.2728,1.2728"/>
<polyline points="71.0705,50.0314 70.1269,51.5628" fill="none" stroke="#999" stroke-dasharray="1.2728,1.2728"/>
<polyline points="71.0705,50.0314 66.8832,56.4000" fill="none" stroke="#999" stroke-dasharray="1.2728,1.2728"/>
<polyline points="16.1481,31.7605 17.3556,31.7259" fill="none" stroke="#999" stroke-dasharray="1.2728,1.2728"/>
<polyline points="63.6396,61.2372 66.8832,57.5724" fill="none" stroke="#999" stroke-dasharray="1.2728,1.2728"/>
<polyline points="16.1481,31.7605 13.0167,31.9594" fill="none" stroke="#999" stroke-dasharray="1.2728,1.2728"/>
<polyline points="-9.1882,0.6944 -9.8173,1.7153" fill="none" stroke="#999" stroke-dasharray="1.2728,1.2728"/>
<polyline points="-9.1882,0.6944 -11.9797,4.9402" fill="none" stroke="#999" stroke-dasharray="1.2728,1.2728"/>
<polyline points="56.5685,48.9898 58.5358,44.6992" fill="none" stroke="#999" stroke-dasharray="1.2728,1.2728"/>
<polyline points="7.4309,21.4540 4.3248,26.2102" fill="none" stroke="#999" stroke-dasharray="1.2728,1.2728"/>
<polyline points="-6.7112,-3.0409 -9.8173,1.7153" fill="none" stroke="#999" stroke-dasharray="1.2728,1.2728"/>
<polyline points="50.5795,36.5332 53.1454,39.6301" fill="none" stroke="#999" stroke-dasharray="1.2728,1.2728"/>
<polyline points="62.4703,36.1179 60.5030,40.4085" fill="none" stroke="#999" stroke-dasharray="1.2728,1.2728"/>
<polyline points="66.8832,56.4000 66.8832,57.5724" fill="none" stroke="#999" stroke-dasharray="1.2728,1.2728"/>
<polyline points="4.9540,25.1893 2.1624,29.4351" fill="none" stroke="#999" stroke-dasharray="1.2728,1.2728"/>
<polyline points="60.5030,40.4085 58.5358,44.6992" fill="none" stroke="#999" stroke-dasharray="1.2728,1.2728"/>
<polyline points="-6.7112,-3.0409 -7.6549,-1.5095" fill="none" stroke="#999" stroke-dasharray="1.2728,1.2728"/>
<polyline points="54.5722,44.8376 54.8570,44.3099" fill="none" stroke="#999" stroke-dasharray="1.2728,1.2728"/>
<polyline points="56.5685,48.9898 54.8570,44.3099" fill="none" stroke="#999" stroke-dasharray="1.2728,1.2728"/>
</svg>
