<svg xmlns="http://www.w3.org/2000/svg" viewBox="-108.9898 -114.9375 921.9716 358.0318" stroke-width="2.5145">
<polygon points="33.5410,-27.3861 -11.1803,9.1287 33.5410,18.2574" fill="rgb(205,106,4)" stroke="none"/>
<polygon points="33.5410,-27.3861 -11.1803,-36.5148 -11.1803,9.1287" fill="rgb(205,106,4)" stroke="none"/>
<polygon points="-44.7214,36.5148 -11.1803,9.1287 -11.1803,-36.5148" fill="rgb(7,11,77)" stroke="none"/>
<polygon points="0.0000,45.6435 33.5410,18.2574 -11.1803,9.1287" fill="rgb(235,235,228)" stroke="none"/>
<polygon points="-67.0820,-36.5148 67.0820,-54.7723 -22.3607,-73.0297" fill="rgb(235,235,228)" stroke="none"/>
<polygon points="0.0000,45.6435 -11.1803,9.1287 -44.7214,36.5148" fill="rgb(235,235,228)" stroke="none"/>
<polygon points="-44.7214,36.5148 -11.1803,-36.5148 -44.7214,-9.1287" fill="rgb(7,11,77)" stroke="none"/>
<polygon points="22.3607,-18.2574 67.0820,36.5148 67.0820,-54.7723" fill="rgb(7,11,77)" stroke="none"/>
<polygon points="22.3607,73.0297 -44.7214,36.5148 -67.0820,54.7723" fill="rgb(205,106,4)" stroke="none"/>
<polygon points="-44.7214,-9.1287 -67.0820,54.7723 -44.7214,36.5148" fill="rgb(205,106,4)" stroke="none"/>
<polygon points="-44.7214,-9.1287 -67.0820,-36.5148 -67.0820,54.7723" fill="rgb(205,106,4)" stroke="none"/>
<polygon points="22.3607,-18.2574 22.3607,73.0297 67.0820,36.5148" fill="rgb(7,11,77)" stroke="none"/>
<polygon points="22.3607,73.0297 0.0000,45.6435 -44.7214,36.5148" fill="rgb(205,106,4)" stroke="none"/>
<polygon points="-67.0820,-36.5148 22.3607,-18.2574 67.0820,-54.7723" fill="rgb(235,235,228)" stroke="none"/>
<polygon points="22.3607,-18.2574 -67.0820,-36.5148 -44.7214,-9.1287" fill="rgb(205,106,4)" stroke="none"/>
<polygon points="22.3607,-18.2574 0.0000,45.6435 22.3607,73.0297" fill="rgb(205,106,4)" stroke="none"/>
<polygon points="22.3607,-18.2574 0.0000,-0.0000 0.0000,45.6435" fill="rgb(205,106,4)" stroke="none"/>
<polygon points="22.3607,-18.2574 -44.7214,-9.1287 0.0000,-0.0000" fill="rgb(205,106,4)" stroke="none"/>
<polygon points="260.7904,17.2400 224.6261,43.2936 269.3475,52.4223" fill="rgb(205,106,4)" stroke="none"/>
<polygon points="193.6383,94.7957 224.6261,43.2936 216.0691,8.1113" fill="rgb(7,11,77)" stroke="none"/>
<polygon points="238.3596,103.9244 269.3475,52.4223 224.6261,43.2936" fill="rgb(235,235,228)" stroke="none"/>
<polygon points="260.7904,17.2400 216.0691,8.1113 224.6261,43.2936" fill="rgb(205,106,4)" stroke="none"/>
<polygon points="238.3596,103.9244 224.6261,43.2936 193.6383,94.7957" fill="rgb(235,235,228)" stroke="none"/>
<polygon points="264.9988,126.0799 193.6383,94.7957 175.5561,107.8225" fill="rgb(205,106,4)" stroke="none"/>
<polygon points="264.9988,126.0799 306.3160,57.4105 289.2019,-12.9541" fill="rgb(7,11,77)" stroke="none"/>
<polygon points="185.0812,59.6133 175.5561,107.8225 193.6383,94.7957" fill="rgb(205,106,4)" stroke="none"/>
<polygon points="193.6383,94.7957 216.0691,8.1113 185.0812,59.6133" fill="rgb(7,11,77)" stroke="none"/>
<polygon points="264.9988,126.0799 238.3596,103.9244 193.6383,94.7957" fill="rgb(205,106,4)" stroke="none"/>
<polygon points="185.0812,59.6133 158.4420,37.4578 175.5561,107.8225" fill="rgb(205,106,4)" stroke="none"/>
<polygon points="247.8847,55.7152 289.2019,-12.9541 199.7592,-31.2116" fill="rgb(235,235,228)" stroke="none"/>
<polygon points="229.8026,68.7420 238.3596,103.9244 264.9988,126.0799" fill="rgb(205,106,4)" stroke="none"/>
<polygon points="158.4420,37.4578 247.8847,55.7152 199.7592,-31.2116" fill="rgb(235,235,228)" stroke="none"/>
<polygon points="247.8847,55.7152 264.9988,126.0799 289.2019,-12.9541" fill="rgb(7,11,77)" stroke="none"/>
<polygon points="247.8847,55.7152 229.8026,68.7420 264.9988,126.0799" fill="rgb(205,106,4)" stroke="none"/>
<polygon points="247.8847,55.7152 158.4420,37.4578 185.0812,59.6133" fill="rgb(205,106,4)" stroke="none"/>
<polygon points="247.8847,55.7152 185.0812,59.6133 229.8026,68.7420" fill="rgb(205,106,4)" stroke="none"/>
<polygon points="509.4794,168.5468 434.4916,145.1712 420.0366,150.2893" fill="rgb(205,106,4)" stroke="none"/>
<polygon points="479.2130,154.2999 502.9301,86.5227 458.2087,77.3940" fill="rgb(235,235,228)" stroke="none"/>
<polygon points="479.2130,154.2999 458.2087,77.3940 434.4916,145.1712" fill="rgb(235,235,228)" stroke="none"/>
<polygon points="434.4916,145.1712 458.2087,77.3940 442.3973,58.0291" fill="rgb(7,11,77)" stroke="none"/>
<polygon points="418.6802,125.8063 420.0366,150.2893 434.4916,145.1712" fill="rgb(205,106,4)" stroke="none"/>
<polygon points="487.1187,67.1578 458.2087,77.3940 502.9301,86.5227" fill="rgb(205,106,4)" stroke="none"/>
<polygon points="509.4794,168.5468 479.2130,154.2999 434.4916,145.1712" fill="rgb(205,106,4)" stroke="none"/>
<polygon points="487.1187,67.1578 442.3973,58.0291 458.2087,77.3940" fill="rgb(205,106,4)" stroke="none"/>
<polygon points="509.4794,168.5468 541.1021,78.1772 509.4794,39.4473" fill="rgb(7,11,77)" stroke="none"/>
<polygon points="434.4916,145.1712 442.3973,58.0291 418.6802,125.8063" fill="rgb(7,11,77)" stroke="none"/>
<polygon points="418.6802,125.8063 388.4139,111.5595 420.0366,150.2893" fill="rgb(205,106,4)" stroke="none"/>
<polygon points="463.4016,134.9350 479.2130,154.2999 509.4794,168.5468" fill="rgb(205,106,4)" stroke="none"/>
<polygon points="388.4139,111.5595 509.4794,39.4473 420.0366,21.1899" fill="rgb(235,235,228)" stroke="none"/>
<polygon points="477.8566,129.8169 463.4016,134.9350 509.4794,168.5468" fill="rgb(205,106,4)" stroke="none"/>
<polygon points="477.8566,129.8169 509.4794,168.5468 509.4794,39.4473" fill="rgb(7,11,77)" stroke="none"/>
<polygon points="477.8566,129.8169 388.4139,111.5595 418.6802,125.8063" fill="rgb(205,106,4)" stroke="none"/>
<polygon points="477.8566,129.8169 418.6802,125.8063 463.4016,134.9350" fill="rgb(205,106,4)" stroke="none"/>
<polygon points="388.4139,111.5595 477.8566,129.8169 509.4794,39.4473" fill="rgb(235,235,228)" stroke="none"/>
<polygon points="753.9599,201.1865 676.5485,187.1938 664.5172,182.9291" fill="rgb(205,106,4)" stroke="none"/>
<polygon points="655.8900,186.5944 664.5172,182.9291 676.5485,187.1938" fill="rgb(205,106,4)" stroke="none"/>
<polygon points="721.2699,196.3225 689.3841,113.4599 676.5485,187.1938" fill="rgb(235,235,228)" stroke="none"/>
<polygon points="753.9599,201.1865 721.2699,196.3225 676.5485,187.1938" fill="rgb(205,106,4)" stroke="none"/>
<polygon points="721.2699,196.3225 734.1055,122.5886 689.3841,113.4599" fill="rgb(235,235,228)" stroke="none"/>
<polygon points="676.5485,187.1938 689.3841,113.4599 668.7256,112.8605" fill="rgb(7,11,77)" stroke="none"/>
<polygon points="655.8900,186.5944 623.2000,181.7304 664.5172,182.9291" fill="rgb(205,106,4)" stroke="none"/>
<polygon points="700.6113,195.7231 721.2699,196.3225 753.9599,201.1865" fill="rgb(205,106,4)" stroke="none"/>
<polygon points="676.5485,187.1938 668.7256,112.8605 655.8900,186.5944" fill="rgb(7,11,77)" stroke="none"/>
<polygon points="713.4469,121.9892 689.3841,113.4599 734.1055,122.5886" fill="rgb(205,106,4)" stroke="none"/>
<polygon points="713.4469,121.9892 668.7256,112.8605 689.3841,113.4599" fill="rgb(205,106,4)" stroke="none"/>
<polygon points="753.9599,201.1865 771.0740,102.8746 729.7569,101.6759" fill="rgb(7,11,77)" stroke="none"/>
<polygon points="712.6427,199.9878 700.6113,195.7231 753.9599,201.1865" fill="rgb(205,106,4)" stroke="none"/>
<polygon points="712.6427,199.9878 623.2000,181.7304 655.8900,186.5944" fill="rgb(205,106,4)" stroke="none"/>
<polygon points="712.6427,199.9878 655.8900,186.5944 700.6113,195.7231" fill="rgb(205,106,4)" stroke="none"/>
<polygon points="712.6427,199.9878 753.9599,201.1865 729.7569,101.6759" fill="rgb(7,11,77)" stroke="none"/>
<polygon points="623.2000,181.7304 712.6427,199.9878 640.3141,83.4185" fill="rgb(235,235,228)" stroke="none"/>
<polygon points="712.6427,199.9878 729.7569,101.6759 640.3141,83.4185" fill="rgb(235,235,228)" stroke="none"/>
<polyline points="-67.0820,54.7723 -67.0820,-36.5148" fill="none" stroke="black"/>
<polyline points="185.0812,59.6133 193.6383,94.7957" fill="none" stroke="black"/>
<polyline points="-44.7214,-9.1287 0.0000,-0.0000" fill="none" stroke="black"/>
<polyline points="193.6383,94.7957 185.0812,59.6133" fill="none" stroke="black"/>
<polyline points="463.4016,134.9350 479.2130,154.2999" fill="none" stroke="black"/>
<polyline points="477.8566,129.8169 509.4794,168.5468" fill="none" stroke="black"/>
<polyline points="-67.0820,-36.5148 22.3607,-18.2574" fill="none" stroke="black"/>
<polyline points="418.6802,125.8063 434.4916,145.1712" fill="none" stroke="black"/>
<polyline points="477.8566,129.8169 509.4794,39.4473" fill="none" stroke="black"/>
<polyline points="-44.7214,-9.1287 -44.7214,36.5148" fill="none" stroke="black"/>
<polyline points="712.6427,199.9878 729.7569,101.6759" fill="none" stroke="black"/>
<polyline points="712.6427,199.9878 753.9599,201.1865" fill="none" stroke="black"/>
<polyline points="729.7569,101.6759 771.0740,102.8746" fill="none" stroke="black"/>
<polyline points="264.9988,126.0799 306.3160,57.4105" fill="none" stroke="black"/>
<polyline points="229.8026,68.7420 238.3596,103.9244" fill="none" stroke="black"/>
<polyline points="388.4139,111.5595 477.8566,129.8169" fill="none" stroke="black"/>
<polyline points="22.3607,-18.2574 67.0820,-54.7723" fill="none" stroke="black"/>
<polyline points="434.4916,145.1712 418.6802,125.8063" fill="none" stroke="black"/>
<polyline points="434.4916,145.1712 479.2130,154.2999" fill="none" stroke="black"/>
<polyline points="193.6383,94.7957 238.3596,103.9244" fill="none" stroke="black"/>
<polyline points="420.0366,150.2893 509.4794,168.5468" fill="none" stroke="black"/>
<polyline points="640.3141,83.4185 623.2000,181.7304" fill="none" stroke="black"/>
<polyline points="247.8847,55.7152 264.9988,126.0799" fill="none" stroke="black"/>
<polyline points="175.5561,107.8225 158.4420,37.4578" fill="none" stroke="black"/>
<polyline points="-22.3607,-73.0297 -67.0820,-36.5148" fill="none" stroke="black"/>
<polyline points="289.2019,-12.9541 306.3160,57.4105" fill="none" stroke="black"/>
<polyline points="158.4420,37.4578 247.8847,55.7152" fill="none" stroke="black"/>
<polyline points="640.3141,83.4185 729.7569,101.6759" fill="none" stroke="black"/>
<polyline points="712.6427,199.9878 623.2000,181.7304" fill="none" stroke="black"/>
<polyline points="67.0820,-54.7723 22.3607,-18.2574" fill="none" stroke="black"/>
<polyline points="185.0812,59.6133 229.8026,68.7420" fill="none" stroke="black"/>
<polyline points="199.7592,-31.2116 289.2019,-12.9541" fill="none" stroke="black"/>
<polyline points="-11.1803,9.1287 -44.7214,36.5148" fill="none" stroke="black"/>
<polyline points="-22.3607,-73.0297 67.0820,-54.7723" fill="none" stroke="black"/>
<polyline points="420.0366,150.2893 388.4139,111.5595" fill="none" stroke="black"/>
<polyline points="175.5561,107.8225 264.9988,126.0799" fill="none" stroke="black"/>
<polyline points="420.0366,21.1899 388.4139,111.5595" fill="none" stroke="black"/>
<polyline points="289.2019,-12.9541 247.8847,55.7152" fill="none" stroke="black"/>
<polyline points="-44.7214,36.5148 -44.7214,-9.1287" fill="none" stroke="black"/>
<polyline points="0.0000,-0.0000 0.0000,45.6435" fill="none" stroke="black"/>
<polyline points="-44.7214,36.5148 0.0000,45.6435" fill="none" stroke="black"/>
<polyline points="199.7592,-31.2116 158.4420,37.4578" fill="none" stroke="black"/>
<polyline points="753.9599,201.1865 712.6427,199.9878" fill="none" stroke="black"/>
<polyline points="22.3607,-18.2574 22.3607,73.0297" fill="none" stroke="black"/>
<polyline points="729.7569,101.6759 712.6427,199.9878" fill="none" stroke="black"/>
<polyline points="434.4916,145.1712 479.2130,154.2999" fill="none" stroke="black"/>
<polyline points="67.0820,-54.7723 67.0820,36.5148" fill="none" stroke="black"/>
<polyline points="-44.7214,36.5148 0.0000,45.6435" fill="none" stroke="black"/>
<polyline points="224.6261,43.2936 193.6383,94.7957" fill="none" stroke="black"/>
<polyline points="420.0366,21.1899 509.4794,39.4473" fill="none" stroke="black"/>
<polyline points="264.9988,126.0799 247.8847,55.7152" fill="none" stroke="black"/>
<polyline points="-11.1803,9.1287 -44.7214,36.5148" fill="none" stroke="black"/>
<polyline points="22.3607,73.0297 67.0820,36.5148" fill="none" stroke="black"/>
<polyline points="-67.0820,54.7723 22.3607,73.0297" fill="none" stroke="black"/>
<polyline points="193.6383,94.7957 238.3596,103.9244" fill="none" stroke="black"/>
<polyline points="418.6802,125.8063 463.4016,134.9350" fill="none" stroke="black"/>
<polyline points="22.3607,73.0297 22.3607,-18.2574" fill="none" stroke="black"/>
<polyline points="509.4794,39.4473 477.8566,129.8169" fill="none" stroke="black"/>
<polyline points="247.8847,55.7152 289.2019,-12.9541" fill="none" stroke="black"/>
<polyline points="509.4794,39.4473 541.1021,78.1772" fill="none" stroke="black"/>
<polyline points="509.4794,168.5468 477.8566,129.8169" fill="none" stroke="black"/>
<polyline points="509.4794,168.5468 541.1021,78.1772" fill="none" stroke="black"/>
<polyline points="623.2000,181.7304 712.6427,199.9878" fill="none" stroke="black"/>
<polyline points="247.8847,55.7152 158.4420,37.4578" fill="none" stroke="black"/>
<polyline points="22.3607,-18.2574 -67.0820,-36.5148" fill="none" stroke="black"/>
<polyline points="224.6261,43.2936 193.6383,94.7957" fill="none" stroke="black"/>
<polyline points="477.8566,129.8169 388.4139,111.5595" fill="none" stroke="black"/>
<polyline points="753.9599,201.1865 771.0740,102.8746" fill="none" stroke="black"/>
<polyline points="33.5410,18.2574 33.5410,-27.3861" fill="none" stroke="#999" stroke-dasharray="7.5434,7.5434"/>
<polyline points="676.5485,187.1938 655.8900,186.5944" fill="none" stroke="#999" stroke-dasharray="7.5434,7.5434"/>
<polyline points="734.1055,122.5886 689.3841,113.4599" fill="none" stroke="#999" stroke-dasharray="7.5434,7.5434"/>
<polyline points="664.5172,182.9291 623.2000,181.7304" fill="none" stroke="#999" stroke-dasharray="7.5434,7.5434"/>
<polyline points="734.1055,122.5886 713.4469,121.9892" fill="none" stroke="#999" stroke-dasharray="7.5434,7.5434"/>
<polyline points="-11.1803,9.1287 33.5410,18.2574" fill="none" stroke="#999" stroke-dasharray="7.5434,7.5434"/>
<polyline points="676.5485,187.1938 721.2699,196.3225" fill="none" stroke="#999" stroke-dasharray="7.5434,7.5434"/>
<polyline points="-11.1803,9.1287 -11.1803,-36.5148" fill="none" stroke="#999" stroke-dasharray="7.5434,7.5434"/>
<polyline points="689.3841,113.4599 668.7256,112.8605" fill="none" stroke="#999" stroke-dasharray="7.5434,7.5434"/>
<polyline points="664.5172,182.9291 753.9599,201.1865" fill="none" stroke="#999" stroke-dasharray="7.5434,7.5434"/>
<polyline points="502.9301,86.5227 458.2087,77.3940" fill="none" stroke="#999" stroke-dasharray="7.5434,7.5434"/>
<polyline points="269.3475,52.4223 260.7904,17.2400" fill="none" stroke="#999" stroke-dasharray="7.5434,7.5434"/>
<polyline points="655.8900,186.5944 700.6113,195.7231" fill="none" stroke="#999" stroke-dasharray="7.5434,7.5434"/>
<polyline points="689.3841,113.4599 676.5485,187.1938" fill="none" stroke="#999" stroke-dasharray="7.5434,7.5434"/>
<polyline points="224.6261,43.2936 216.0691,8.1113" fill="none" stroke="#999" stroke-dasharray="7.5434,7.5434"/>
<polyline points="458.2087,77.3940 434.4916,145.1712" fill="none" stroke="#999" stroke-dasharray="7.5434,7.5434"/>
<polyline points="734.1055,122.5886 721.2699,196.3225" fill="none" stroke="#999" stroke-dasharray="7.5434,7.5434"/>
<polyline points="224.6261,43.2936 269.3475,52.4223" fill="none" stroke="#999" stroke-dasharray="7.5434,7.5434"/>
<polyline points="668.7256,112.8605 655.8900,186.5944" fill="none" stroke="#999" stroke-dasharray="7.5434,7.5434"/>
<polyline points="458.2087,77.3940 442.3973,58.0291" fill="none" stroke="#999" stroke-dasharray="7.5434,7.5434"/>
<polyline points="33.5410,-27.3861 -11.1803,-36.5148" fill="none" stroke="#999" stroke-dasharray="7.5434,7.5434"/>
<polyline points="458.2087,77.3940 502.9301,86.5227" fill="none" stroke="#999" stroke-dasharray="7.5434,7.5434"/>
<polyline points="216.0691,8.1113 224.6261,43.2936" fill="none" stroke="#999" stroke-dasharray="7.5434,7.5434"/>
<polyline points="216.0691,8.1113 185.0812,59.6133" fill="none" stroke="#999" stroke-dasharray="7.5434,7.5434"/>
<polyline points="442.3973,58.0291 458.2087,77.3940" fill="none" stroke="#999" stroke-dasharray="7.5434,7.5434"/>
<polyline points="-11.1803,-36.5148 -11.1803,9.1287" fill="none" stroke="#999" stroke-dasharray="7.5434,7.5434"/>
<polyline points="442.3973,58.0291 418.6802,125.8063" fill="none" stroke="#999" stroke-dasharray="7.5434,7.5434"/>
<polyline points="676.5485,187.1938 721.2699,196.3225" fill="none" stroke="#999" stroke-dasharray="7.5434,7.5434"/>
<polyline points="33.5410,18.2574 0.0000,45.6435" fill="none" stroke="#999" stroke-dasharray="7.5434,7.5434"/>
<polyline points="655.8900,186.5944 676.5485,187.1938" fill="none" stroke="#999" stroke-dasharray="7.5434,7.5434"/>
<polyline points="689.3841,113.4599 676.5485,187.1938" fill="none" stroke="#999" stroke-dasharray="7.5434,7.5434"/>
<polyline points="713.4469,121.9892 668.7256,112.8605" fill="none" stroke="#999" stroke-dasharray="7.5434,7.5434"/>
<polyline points="689.3841,113.4599 734.1055,122.5886" fill="none" stroke="#999" stroke-dasharray="7.5434,7.5434"/>
<polyline points="-11.1803,-36.5148 -44.7214,-9.1287" fill="none" stroke="#999" stroke-dasharray="7.5434,7.5434"/>
<polyline points="502.9301,86.5227 487.1187,67.1578" fill="none" stroke="#999" stroke-dasharray="7.5434,7.5434"/>
<polyline points="458.2087,77.3940 434.4916,145.1712" fill="none" stroke="#999" stroke-dasharray="7.5434,7.5434"/>
<polyline points="487.1187,67.1578 442.3973,58.0291" fill="none" stroke="#999" stroke-dasharray="7.5434,7.5434"/>
<polyline points="269.3475,52.4223 224.6261,43.2936" fill="none" stroke="#999" stroke-dasharray="7.5434,7.5434"/>
<polyline points="668.7256,112.8605 689.3841,113.4599" fill="none" stroke="#999" stroke-dasharray="7.5434,7.5434"/>
<polyline points="700.6113,195.7231 721.2699,196.3225" fill="none" stroke="#999" stroke-dasharray="7.5434,7.5434"/>
<polyline points="269.3475,52.4223 238.3596,103.9244" fill="none" stroke="#999" stroke-dasharray="7.5434,7.5434"/>
<polyline points="502.9301,86.5227 479.2130,154.2999" fill="none" stroke="#999" stroke-dasharray="7.5434,7.5434"/>
<polyline points="260.7904,17.2400 216.0691,8.1113" fill="none" stroke="#999" stroke-dasharray="7.5434,7.5434"/>
<polyline points="33.5410,18.2574 -11.1803,9.1287" fill="none" stroke="#999" stroke-dasharray="7.5434,7.5434"/>
</svg>
