<svg xmlns="http://www.w3.org/2000/svg" viewBox="-14.2438 -23.1097 106.7499 49.9937" stroke-width="0.2911">
<polygon points="3.5884,-13.2390 7.1156,-15.9686 5.8244,-15.0647" fill="rgb(230,126,34)" stroke="none"/>
<polygon points="14.3002,-1.3669 16.5362,-3.1927 17.5161,-4.4416" fill="rgb(230,126,34)" stroke="none"/>
<polygon points="4.8795,-14.1429 8.6430,-16.4750 7.1156,-15.9686" fill="rgb(230,126,34)" stroke="none"/>
<polygon points="3.5884,-13.2390 4.8795,-14.1429 7.1156,-15.9686" fill="rgb(230,126,34)" stroke="none"/>
<polygon points="15.8918,-4.1371 17.5161,-4.4416 18.1278,-5.9628" fill="rgb(230,126,34)" stroke="none"/>
<polygon points="6.4069,-14.6493 10.3178,-16.5545 8.6430,-16.4750" fill="rgb(230,126,34)" stroke="none"/>
<polygon points="15.2801,-2.6158 14.3002,-1.3669 17.5161,-4.4416" fill="rgb(230,126,34)" stroke="none"/>
<polygon points="15.8918,-4.1371 18.1278,-5.9628 18.3358,-7.6681" fill="rgb(230,126,34)" stroke="none"/>
<polygon points="4.8795,-14.1429 6.4069,-14.6493 8.6430,-16.4750" fill="rgb(230,126,34)" stroke="none"/>
<polygon points="15.8918,-4.1371 15.2801,-2.6158 17.5161,-4.4416" fill="rgb(230,126,34)" stroke="none"/>
<polygon points="8.0818,-14.7287 12.0428,-16.2024 10.3178,-16.5545" fill="rgb(230,126,34)" stroke="none"/>
<polygon points="15.8918,-7.6325 18.3358,-7.6681 18.1278,-9.4583" fill="rgb(230,126,34)" stroke="none"/>
<polygon points="6.4069,-14.6493 8.0818,-14.7287 10.3178,-16.5545" fill="rgb(230,126,34)" stroke="none"/>
<polygon points="11.4816,-13.6134 13.7177,-15.4392 12.0428,-16.2024" fill="rgb(230,126,34)" stroke="none"/>
<polygon points="15.2801,-9.4035 18.1278,-9.4583 17.5161,-11.2293" fill="rgb(230,126,34)" stroke="none"/>
<polygon points="11.4816,-13.6134 15.2451,-14.3092 13.7177,-15.4392" fill="rgb(230,126,34)" stroke="none"/>
<polygon points="16.0997,-5.8424 15.8918,-4.1371 18.3358,-7.6681" fill="rgb(230,126,34)" stroke="none"/>
<polygon points="15.2801,-9.4035 17.5161,-11.2293 16.5362,-12.8782" fill="rgb(230,126,34)" stroke="none"/>
<polygon points="13.0090,-12.4835 16.5362,-12.8782 15.2451,-14.3092" fill="rgb(230,126,34)" stroke="none"/>
<polygon points="8.0818,-14.7287 9.8068,-14.3766 12.0428,-16.2024" fill="rgb(230,126,34)" stroke="none"/>
<polygon points="15.8918,-7.6325 16.0997,-5.8424 18.3358,-7.6681" fill="rgb(230,126,34)" stroke="none"/>
<polygon points="9.8068,-14.3766 11.4816,-13.6134 12.0428,-16.2024" fill="rgb(230,126,34)" stroke="none"/>
<polygon points="15.2801,-9.4035 15.8918,-7.6325 18.1278,-9.4583" fill="rgb(230,126,34)" stroke="none"/>
<polygon points="11.4816,-13.6134 13.0090,-12.4835 15.2451,-14.3092" fill="rgb(230,126,34)" stroke="none"/>
<polygon points="14.3002,-11.0525 15.2801,-9.4035 16.5362,-12.8782" fill="rgb(230,126,34)" stroke="none"/>
<polygon points="13.0090,-12.4835 14.3002,-11.0525 16.5362,-12.8782" fill="rgb(230,126,34)" stroke="none"/>
<polygon points="8.9443,10.9545 17.8885,3.6515 17.8885,-14.6059" fill="rgb(74,144,217)" stroke="none"/>
<polygon points="-4.0647,5.1805 -5.3559,3.7495 -8.9443,7.3030" fill="rgb(74,144,217)" stroke="none"/>
<polygon points="-6.3358,2.1006 -8.9443,7.3030 -5.3559,3.7495" fill="rgb(74,144,217)" stroke="none"/>
<polygon points="-2.5373,6.3105 -4.0647,5.1805 -8.9443,7.3030" fill="rgb(74,144,217)" stroke="none"/>
<polygon points="-6.9475,0.3296 -8.9443,7.3030 -6.3358,2.1006" fill="rgb(74,144,217)" stroke="none"/>
<polygon points="8.9443,-7.3030 17.8885,-14.6059 0.0000,-18.2574" fill="rgb(74,144,217)" stroke="none"/>
<polygon points="-0.8625,7.0737 -2.5373,6.3105 -8.9443,7.3030" fill="rgb(74,144,217)" stroke="none"/>
<polygon points="-7.1554,-1.4606 -8.9443,7.3030 -6.9475,0.3296" fill="rgb(74,144,217)" stroke="none"/>
<polygon points="0.8625,7.4258 -0.8625,7.0737 -8.9443,7.3030" fill="rgb(74,144,217)" stroke="none"/>
<polygon points="-8.9443,-10.9545 -8.9443,7.3030 -7.1554,-1.4606" fill="rgb(74,144,217)" stroke="none"/>
<polygon points="8.9443,10.9545 0.8625,7.4258 -8.9443,7.3030" fill="rgb(74,144,217)" stroke="none"/>
<polygon points="8.9443,-7.3030 0.0000,-18.2574 -8.9443,-10.9545" fill="rgb(74,144,217)" stroke="none"/>
<polygon points="-8.9443,-10.9545 -7.1554,-1.4606 -6.9475,-3.1659" fill="rgb(74,144,217)" stroke="none"/>
<polygon points="8.9443,10.9545 2.5373,7.3463 0.8625,7.4258" fill="rgb(74,144,217)" stroke="none"/>
<polygon points="-8.9443,-10.9545 -6.9475,-3.1659 -6.3358,-4.6871" fill="rgb(74,144,217)" stroke="none"/>
<polygon points="8.9443,10.9545 4.0647,6.8399 2.5373,7.3463" fill="rgb(74,144,217)" stroke="none"/>
<polygon points="-8.9443,-10.9545 -6.3358,-4.6871 -5.3559,-5.9360" fill="rgb(74,144,217)" stroke="none"/>
<polygon points="5.3559,5.9360 4.0647,6.8399 8.9443,10.9545" fill="rgb(74,144,217)" stroke="none"/>
<polygon points="8.9443,10.9545 17.8885,-14.6059 8.9443,-7.3030" fill="rgb(74,144,217)" stroke="none"/>
<polygon points="-4.0647,-6.8399 -8.9443,-10.9545 -5.3559,-5.9360" fill="rgb(74,144,217)" stroke="none"/>
<polygon points="-9.1836,-1.3401 -7.5920,5.5752 -6.3008,7.0063" fill="rgb(230,126,34)" stroke="none"/>
<polygon points="-9.1836,-1.3401 -8.5719,3.9263 -7.5920,5.5752" fill="rgb(230,126,34)" stroke="none"/>
<polygon points="-9.1836,-1.3401 -6.3008,7.0063 -4.7734,8.1362" fill="rgb(230,126,34)" stroke="none"/>
<polygon points="-9.1836,-1.3401 -9.1836,2.1553 -8.5719,3.9263" fill="rgb(230,126,34)" stroke="none"/>
<polygon points="-1.3736,9.2515 -4.7734,8.1362 -3.0986,8.8994" fill="rgb(230,126,34)" stroke="none"/>
<polygon points="6.3358,4.6871 5.3559,5.9360 8.9443,10.9545" fill="rgb(74,144,217)" stroke="none"/>
<polygon points="31.7123,12.4835 40.6566,5.1805 39.3655,3.7495" fill="rgb(230,126,34)" stroke="none"/>
<polygon points="-9.1836,-1.3401 -9.3915,0.3651 -9.1836,2.1553" fill="rgb(230,126,34)" stroke="none"/>
<polygon points="30.4212,11.0525 39.3655,3.7495 38.3856,2.1006" fill="rgb(230,126,34)" stroke="none"/>
<polygon points="-2.5373,-7.3463 -8.9443,-10.9545 -4.0647,-6.8399" fill="rgb(74,144,217)" stroke="none"/>
<polygon points="33.2397,13.6134 42.1840,6.3105 40.6566,5.1805" fill="rgb(230,126,34)" stroke="none"/>
<polygon points="6.9475,3.1659 6.3358,4.6871 8.9443,10.9545" fill="rgb(74,144,217)" stroke="none"/>
<polygon points="-8.5719,-2.8614 -4.7734,8.1362 -1.3736,9.2515" fill="rgb(230,126,34)" stroke="none"/>
<polygon points="28.8296,7.6325 38.3856,2.1006 37.7739,0.3296" fill="rgb(230,126,34)" stroke="none"/>
<polygon points="-8.5719,-2.8614 -9.1836,-1.3401 -4.7734,8.1362" fill="rgb(230,126,34)" stroke="none"/>
<polygon points="-7.5920,-4.1103 -4.0647,-6.8399 -5.3559,-5.9360" fill="rgb(230,126,34)" stroke="none"/>
<polygon points="-0.8625,-7.4258 -8.9443,-10.9545 -2.5373,-7.3463" fill="rgb(74,144,217)" stroke="none"/>
<polygon points="34.9146,14.3766 43.8589,7.0737 42.1840,6.3105" fill="rgb(230,126,34)" stroke="none"/>
<polygon points="7.1554,1.4606 6.9475,3.1659 8.9443,10.9545" fill="rgb(74,144,217)" stroke="none"/>
<polygon points="28.6217,5.8424 37.7739,0.3296 37.5659,-1.4606" fill="rgb(230,126,34)" stroke="none"/>
<polygon points="3.1198,7.7618 5.3559,5.9360 6.3358,4.6871" fill="rgb(230,126,34)" stroke="none"/>
<polygon points="34.9146,14.3766 45.5838,7.4258 43.8589,7.0737" fill="rgb(230,126,34)" stroke="none"/>
<polygon points="1.8287,8.6657 -1.3736,9.2515 0.3013,9.1721" fill="rgb(230,126,34)" stroke="none"/>
<polygon points="28.6217,5.8424 37.5659,-1.4606 37.7739,-3.1659" fill="rgb(230,126,34)" stroke="none"/>
<polygon points="-6.3008,-5.0142 -2.5373,-7.3463 -4.0647,-6.8399" fill="rgb(230,126,34)" stroke="none"/>
<polygon points="3.1198,7.7618 -1.3736,9.2515 1.8287,8.6657" fill="rgb(230,126,34)" stroke="none"/>
<polygon points="-7.5920,-4.1103 -6.3008,-5.0142 -4.0647,-6.8399" fill="rgb(230,126,34)" stroke="none"/>
<polygon points="38.3144,14.6493 47.2587,7.3463 45.5838,7.4258" fill="rgb(230,126,34)" stroke="none"/>
<polygon points="4.7114,4.9916 6.3358,4.6871 6.9475,3.1659" fill="rgb(230,126,34)" stroke="none"/>
<polygon points="-4.7734,-5.5206 -0.8625,-7.4258 -2.5373,-7.3463" fill="rgb(230,126,34)" stroke="none"/>
<polygon points="-3.0986,-5.6000 -8.5719,-2.8614 -1.3736,9.2515" fill="rgb(230,126,34)" stroke="none"/>
<polygon points="8.9443,-7.3030 -8.9443,-10.9545 -0.8625,-7.4258" fill="rgb(74,144,217)" stroke="none"/>
<polygon points="4.0997,6.5129 3.1198,7.7618 6.3358,4.6871" fill="rgb(230,126,34)" stroke="none"/>
<polygon points="29.4413,2.6158 37.7739,-3.1659 38.3856,-4.6871" fill="rgb(230,126,34)" stroke="none"/>
<polygon points="-6.3008,-5.0142 -7.5920,-4.1103 -8.5719,-2.8614" fill="rgb(230,126,34)" stroke="none"/>
<polygon points="8.9443,-7.3030 7.1554,1.4606 8.9443,10.9545" fill="rgb(74,144,217)" stroke="none"/>
<polygon points="4.7114,4.9916 6.9475,3.1659 7.1554,1.4606" fill="rgb(230,126,34)" stroke="none"/>
<polygon points="-3.0986,-5.6000 -1.3736,9.2515 3.1198,7.7618" fill="rgb(230,126,34)" stroke="none"/>
<polygon points="39.8418,14.1429 48.7861,6.8399 47.2587,7.3463" fill="rgb(230,126,34)" stroke="none"/>
<polygon points="-6.3008,-5.0142 -4.7734,-5.5206 -2.5373,-7.3463" fill="rgb(230,126,34)" stroke="none"/>
<polygon points="4.7114,4.9916 4.0997,6.5129 6.3358,4.6871" fill="rgb(230,126,34)" stroke="none"/>
<polygon points="-3.0986,-5.6000 0.8625,-7.0737 -0.8625,-7.4258" fill="rgb(230,126,34)" stroke="none"/>
<polygon points="-4.7734,-5.5206 -6.3008,-5.0142 -8.5719,-2.8614" fill="rgb(230,126,34)" stroke="none"/>
<polygon points="30.4212,1.3669 38.3856,-4.6871 39.3655,-5.9360" fill="rgb(230,126,34)" stroke="none"/>
<polygon points="8.9443,-7.3030 -0.8625,-7.4258 0.8625,-7.0737" fill="rgb(74,144,217)" stroke="none"/>
<polygon points="39.8418,14.1429 50.0773,5.9360 48.7861,6.8399" fill="rgb(230,126,34)" stroke="none"/>
<polygon points="4.7114,1.4962 7.1554,1.4606 6.9475,-0.3296" fill="rgb(230,126,34)" stroke="none"/>
<polygon points="8.9443,-7.3030 6.9475,-0.3296 7.1554,1.4606" fill="rgb(74,144,217)" stroke="none"/>
<polygon points="-3.0986,-5.6000 -4.7734,-5.5206 -8.5719,-2.8614" fill="rgb(230,126,34)" stroke="none"/>
<polygon points="-4.7734,-5.5206 -3.0986,-5.6000 -0.8625,-7.4258" fill="rgb(230,126,34)" stroke="none"/>
<polygon points="8.9443,-7.3030 0.8625,-7.0737 2.5373,-6.3105" fill="rgb(74,144,217)" stroke="none"/>
<polygon points="0.3013,-4.4847 2.5373,-6.3105 0.8625,-7.0737" fill="rgb(230,126,34)" stroke="none"/>
<polygon points="8.9443,-7.3030 6.3358,-2.1006 6.9475,-0.3296" fill="rgb(74,144,217)" stroke="none"/>
<polygon points="4.0997,-0.2748 6.9475,-0.3296 6.3358,-2.1006" fill="rgb(230,126,34)" stroke="none"/>
<polygon points="8.9443,-7.3030 2.5373,-6.3105 4.0647,-5.1805" fill="rgb(74,144,217)" stroke="none"/>
<polygon points="0.3013,-4.4847 4.0647,-5.1805 2.5373,-6.3105" fill="rgb(230,126,34)" stroke="none"/>
<polygon points="4.9193,3.2863 4.7114,4.9916 7.1554,1.4606" fill="rgb(230,126,34)" stroke="none"/>
<polygon points="8.9443,-7.3030 5.3559,-3.7495 6.3358,-2.1006" fill="rgb(74,144,217)" stroke="none"/>
<polygon points="8.9443,-7.3030 4.0647,-5.1805 5.3559,-3.7495" fill="rgb(74,144,217)" stroke="none"/>
<polygon points="4.0997,-0.2748 6.3358,-2.1006 5.3559,-3.7495" fill="rgb(230,126,34)" stroke="none"/>
<polygon points="1.8287,-3.3548 5.3559,-3.7495 4.0647,-5.1805" fill="rgb(230,126,34)" stroke="none"/>
<polygon points="4.7114,1.4962 3.1198,7.7618 4.0997,6.5129" fill="rgb(230,126,34)" stroke="none"/>
<polygon points="-3.0986,-5.6000 -1.3736,-5.2479 0.8625,-7.0737" fill="rgb(230,126,34)" stroke="none"/>
<polygon points="4.7114,1.4962 4.9193,3.2863 7.1554,1.4606" fill="rgb(230,126,34)" stroke="none"/>
<polygon points="31.7123,12.4835 39.3655,3.7495 30.4212,11.0525" fill="rgb(230,126,34)" stroke="none"/>
<polygon points="-1.3736,-5.2479 -3.0986,-5.6000 3.1198,7.7618" fill="rgb(230,126,34)" stroke="none"/>
<polygon points="30.4212,11.0525 38.3856,2.1006 29.4413,9.4035" fill="rgb(230,126,34)" stroke="none"/>
<polygon points="33.2397,13.6134 40.6566,5.1805 31.7123,12.4835" fill="rgb(230,126,34)" stroke="none"/>
<polygon points="-1.3736,-5.2479 0.3013,-4.4847 0.8625,-7.0737" fill="rgb(230,126,34)" stroke="none"/>
<polygon points="29.4413,9.4035 38.3856,2.1006 28.8296,7.6325" fill="rgb(230,126,34)" stroke="none"/>
<polygon points="4.7114,1.4962 4.0997,6.5129 4.7114,4.9916" fill="rgb(230,126,34)" stroke="none"/>
<polygon points="4.0997,-0.2748 4.7114,1.4962 6.9475,-0.3296" fill="rgb(230,126,34)" stroke="none"/>
<polygon points="34.9146,14.3766 42.1840,6.3105 33.2397,13.6134" fill="rgb(230,126,34)" stroke="none"/>
<polygon points="3.1198,-1.9238 -1.3736,-5.2479 3.1198,7.7618" fill="rgb(230,126,34)" stroke="none"/>
<polygon points="3.1198,-1.9238 3.1198,7.7618 4.7114,1.4962" fill="rgb(230,126,34)" stroke="none"/>
<polygon points="0.3013,-4.4847 1.8287,-3.3548 4.0647,-5.1805" fill="rgb(230,126,34)" stroke="none"/>
<polygon points="28.8296,7.6325 37.7739,0.3296 28.6217,5.8424" fill="rgb(230,126,34)" stroke="none"/>
<polygon points="3.1198,-1.9238 4.0997,-0.2748 5.3559,-3.7495" fill="rgb(230,126,34)" stroke="none"/>
<polygon points="4.7114,1.4962 4.7114,4.9916 4.9193,3.2863" fill="rgb(230,126,34)" stroke="none"/>
<polygon points="1.8287,-3.3548 3.1198,-1.9238 5.3559,-3.7495" fill="rgb(230,126,34)" stroke="none"/>
<polygon points="36.6396,14.7287 45.5838,7.4258 34.9146,14.3766" fill="rgb(230,126,34)" stroke="none"/>
<polygon points="44.7214,18.2574 53.6656,10.9545 53.6656,-7.3030" fill="rgb(74,144,217)" stroke="none"/>
<polygon points="28.6217,5.8424 37.7739,-3.1659 28.8296,4.1371" fill="rgb(230,126,34)" stroke="none"/>
<polygon points="3.1198,-1.9238 0.3013,-4.4847 -1.3736,-5.2479" fill="rgb(230,126,34)" stroke="none"/>
<polygon points="38.3144,14.6493 45.5838,7.4258 36.6396,14.7287" fill="rgb(230,126,34)" stroke="none"/>
<polygon points="3.1198,-1.9238 4.7114,1.4962 4.0997,-0.2748" fill="rgb(230,126,34)" stroke="none"/>
<polygon points="3.1198,-1.9238 1.8287,-3.3548 0.3013,-4.4847" fill="rgb(230,126,34)" stroke="none"/>
<polygon points="28.8296,4.1371 37.7739,-3.1659 29.4413,2.6158" fill="rgb(230,126,34)" stroke="none"/>
<polygon points="39.8418,14.1429 47.2587,7.3463 38.3144,14.6493" fill="rgb(230,126,34)" stroke="none"/>
<polygon points="29.4413,2.6158 38.3856,-4.6871 30.4212,1.3669" fill="rgb(230,126,34)" stroke="none"/>
<polygon points="31.7123,12.4835 30.4212,11.0525 26.8328,14.6059" fill="rgb(74,144,217)" stroke="none"/>
<polygon points="29.4413,9.4035 26.8328,14.6059 30.4212,11.0525" fill="rgb(74,144,217)" stroke="none"/>
<polygon points="33.2397,13.6134 31.7123,12.4835 26.8328,14.6059" fill="rgb(74,144,217)" stroke="none"/>
<polygon points="41.1330,13.2390 50.0773,5.9360 39.8418,14.1429" fill="rgb(230,126,34)" stroke="none"/>
<polygon points="28.8296,7.6325 26.8328,14.6059 29.4413,9.4035" fill="rgb(74,144,217)" stroke="none"/>
<polygon points="44.7214,-0.0000 53.6656,-7.3030 35.7771,-10.9545" fill="rgb(74,144,217)" stroke="none"/>
<polygon points="34.9146,14.3766 33.2397,13.6134 26.8328,14.6059" fill="rgb(74,144,217)" stroke="none"/>
<polygon points="28.6217,5.8424 26.8328,14.6059 28.8296,7.6325" fill="rgb(74,144,217)" stroke="none"/>
<polygon points="36.6396,14.7287 34.9146,14.3766 26.8328,14.6059" fill="rgb(74,144,217)" stroke="none"/>
<polygon points="26.8328,-3.6515 26.8328,14.6059 28.6217,5.8424" fill="rgb(74,144,217)" stroke="none"/>
<polygon points="44.7214,18.2574 36.6396,14.7287 26.8328,14.6059" fill="rgb(74,144,217)" stroke="none"/>
<polygon points="44.7214,-0.0000 35.7771,-10.9545 26.8328,-3.6515" fill="rgb(74,144,217)" stroke="none"/>
<polygon points="26.8328,-3.6515 28.6217,5.8424 28.8296,4.1371" fill="rgb(74,144,217)" stroke="none"/>
<polygon points="44.7214,18.2574 38.3144,14.6493 36.6396,14.7287" fill="rgb(74,144,217)" stroke="none"/>
<polygon points="26.8328,-3.6515 28.8296,4.1371 29.4413,2.6158" fill="rgb(74,144,217)" stroke="none"/>
<polygon points="44.7214,18.2574 39.8418,14.1429 38.3144,14.6493" fill="rgb(74,144,217)" stroke="none"/>
<polygon points="26.8328,-3.6515 29.4413,2.6158 30.4212,1.3669" fill="rgb(74,144,217)" stroke="none"/>
<polygon points="41.1330,13.2390 39.8418,14.1429 44.7214,18.2574" fill="rgb(74,144,217)" stroke="none"/>
<polygon points="44.7214,18.2574 53.6656,-7.3030 44.7214,-0.0000" fill="rgb(74,144,217)" stroke="none"/>
<polygon points="31.7123,0.4630 26.8328,-3.6515 30.4212,1.3669" fill="rgb(74,144,217)" stroke="none"/>
<polygon points="42.1129,11.9901 41.1330,13.2390 44.7214,18.2574" fill="rgb(74,144,217)" stroke="none"/>
<polygon points="33.2397,-0.0434 26.8328,-3.6515 31.7123,0.4630" fill="rgb(74,144,217)" stroke="none"/>
<polygon points="42.7246,10.4688 42.1129,11.9901 44.7214,18.2574" fill="rgb(74,144,217)" stroke="none"/>
<polygon points="34.9146,-0.1228 26.8328,-3.6515 33.2397,-0.0434" fill="rgb(74,144,217)" stroke="none"/>
<polygon points="42.9325,8.7636 42.7246,10.4688 44.7214,18.2574" fill="rgb(74,144,217)" stroke="none"/>
<polygon points="44.7214,-0.0000 26.8328,-3.6515 34.9146,-0.1228" fill="rgb(74,144,217)" stroke="none"/>
<polygon points="44.7214,-0.0000 42.9325,8.7636 44.7214,18.2574" fill="rgb(74,144,217)" stroke="none"/>
<polygon points="44.7214,-0.0000 34.9146,-0.1228 36.6396,0.2293" fill="rgb(74,144,217)" stroke="none"/>
<polygon points="44.7214,-0.0000 42.7246,6.9734 42.9325,8.7636" fill="rgb(74,144,217)" stroke="none"/>
<polygon points="44.7214,-0.0000 36.6396,0.2293 38.3144,0.9925" fill="rgb(74,144,217)" stroke="none"/>
<polygon points="44.7214,-0.0000 42.1129,5.2024 42.7246,6.9734" fill="rgb(74,144,217)" stroke="none"/>
<polygon points="66.1983,8.6699 76.4337,0.4630 75.1425,1.3669" fill="rgb(230,126,34)" stroke="none"/>
<polygon points="44.7214,-0.0000 38.3144,0.9925 39.8418,2.1225" fill="rgb(74,144,217)" stroke="none"/>
<polygon points="44.7214,-0.0000 41.1330,3.5535 42.1129,5.2024" fill="rgb(74,144,217)" stroke="none"/>
<polygon points="44.7214,-0.0000 39.8418,2.1225 41.1330,3.5535" fill="rgb(74,144,217)" stroke="none"/>
<polygon points="76.9101,20.5420 85.8544,13.2390 86.8343,11.9901" fill="rgb(230,126,34)" stroke="none"/>
<polygon points="67.4894,7.7660 77.9611,-0.0434 76.4337,0.4630" fill="rgb(230,126,34)" stroke="none"/>
<polygon points="78.5017,17.7718 86.8343,11.9901 87.4459,10.4688" fill="rgb(230,126,34)" stroke="none"/>
<polygon points="69.0168,7.2596 79.6360,-0.1228 77.9611,-0.0434" fill="rgb(230,126,34)" stroke="none"/>
<polygon points="78.5017,17.7718 87.4459,10.4688 87.6539,8.7636" fill="rgb(230,126,34)" stroke="none"/>
<polygon points="70.6917,7.1802 81.3609,0.2293 79.6360,-0.1228" fill="rgb(230,126,34)" stroke="none"/>
<polygon points="78.5017,14.2764 87.6539,8.7636 87.4459,6.9734" fill="rgb(230,126,34)" stroke="none"/>
<polygon points="74.0915,8.2955 83.0358,0.9925 81.3609,0.2293" fill="rgb(230,126,34)" stroke="none"/>
<polygon points="77.8900,12.5054 87.4459,6.9734 86.8343,5.2024" fill="rgb(230,126,34)" stroke="none"/>
<polygon points="74.0915,8.2955 84.5632,2.1225 83.0358,0.9925" fill="rgb(230,126,34)" stroke="none"/>
<polygon points="77.8900,12.5054 86.8343,5.2024 85.8544,3.5535" fill="rgb(230,126,34)" stroke="none"/>
<polygon points="75.6189,9.4254 85.8544,3.5535 84.5632,2.1225" fill="rgb(230,126,34)" stroke="none"/>
<polygon points="66.1983,8.6699 67.4894,7.7660 76.4337,0.4630" fill="rgb(230,126,34)" stroke="none"/>
<polygon points="69.0168,20.9164 66.1983,18.3554 67.4894,19.7864" fill="rgb(74,144,217)" stroke="none"/>
<polygon points="77.8900,19.2931 76.9101,20.5420 86.8343,11.9901" fill="rgb(230,126,34)" stroke="none"/>
<polygon points="67.4894,7.7660 69.0168,7.2596 77.9611,-0.0434" fill="rgb(230,126,34)" stroke="none"/>
<polygon points="78.5017,17.7718 77.8900,19.2931 86.8343,11.9901" fill="rgb(230,126,34)" stroke="none"/>
<polygon points="64.6067,11.4401 64.6067,14.9355 65.2184,16.7065" fill="rgb(74,144,217)" stroke="none"/>
<polygon points="72.4167,22.0317 69.0168,20.9164 70.6917,21.6796" fill="rgb(74,144,217)" stroke="none"/>
<polygon points="64.6067,11.4401 64.3988,13.1453 64.6067,14.9355" fill="rgb(74,144,217)" stroke="none"/>
<polygon points="76.9101,20.5420 65.2184,16.7065 66.1983,18.3554" fill="rgb(74,144,217)" stroke="none"/>
<polygon points="69.0168,7.2596 70.6917,7.1802 79.6360,-0.1228" fill="rgb(230,126,34)" stroke="none"/>
<polygon points="76.9101,20.5420 66.1983,18.3554 69.0168,20.9164" fill="rgb(74,144,217)" stroke="none"/>
<polygon points="78.7096,16.0665 78.5017,17.7718 87.6539,8.7636" fill="rgb(230,126,34)" stroke="none"/>
<polygon points="76.9101,20.5420 69.0168,20.9164 72.4167,22.0317" fill="rgb(74,144,217)" stroke="none"/>
<polygon points="76.9101,20.5420 64.6067,11.4401 65.2184,16.7065" fill="rgb(74,144,217)" stroke="none"/>
<polygon points="70.6917,7.1802 72.4167,7.5323 81.3609,0.2293" fill="rgb(230,126,34)" stroke="none"/>
<polygon points="78.5017,14.2764 78.7096,16.0665 87.6539,8.7636" fill="rgb(230,126,34)" stroke="none"/>
<polygon points="72.4167,7.5323 74.0915,8.2955 81.3609,0.2293" fill="rgb(230,126,34)" stroke="none"/>
<polygon points="76.9101,20.5420 72.4167,22.0317 74.0915,21.9523" fill="rgb(74,144,217)" stroke="none"/>
<polygon points="66.1983,8.6699 65.2184,9.9188 64.6067,11.4401" fill="rgb(74,144,217)" stroke="none"/>
<polygon points="77.8900,12.5054 78.5017,14.2764 87.4459,6.9734" fill="rgb(230,126,34)" stroke="none"/>
<polygon points="74.0915,8.2955 75.6189,9.4254 84.5632,2.1225" fill="rgb(230,126,34)" stroke="none"/>
<polygon points="76.9101,10.8564 77.8900,12.5054 85.8544,3.5535" fill="rgb(230,126,34)" stroke="none"/>
<polygon points="75.6189,9.4254 76.9101,10.8564 85.8544,3.5535" fill="rgb(230,126,34)" stroke="none"/>
<polygon points="76.9101,20.5420 74.0915,21.9523 75.6189,21.4459" fill="rgb(74,144,217)" stroke="none"/>
<polygon points="72.4167,7.5323 66.1983,8.6699 64.6067,11.4401" fill="rgb(74,144,217)" stroke="none"/>
<polygon points="77.8900,12.5054 64.6067,11.4401 76.9101,20.5420" fill="rgb(74,144,217)" stroke="none"/>
<polygon points="72.4167,7.5323 67.4894,7.7660 66.1983,8.6699" fill="rgb(74,144,217)" stroke="none"/>
<polygon points="78.7096,16.0665 76.9101,20.5420 77.8900,19.2931" fill="rgb(74,144,217)" stroke="none"/>
<polygon points="77.8900,12.5054 72.4167,7.5323 64.6067,11.4401" fill="rgb(74,144,217)" stroke="none"/>
<polygon points="72.4167,7.5323 69.0168,7.2596 67.4894,7.7660" fill="rgb(74,144,217)" stroke="none"/>
<polygon points="78.7096,16.0665 77.8900,19.2931 78.5017,17.7718" fill="rgb(74,144,217)" stroke="none"/>
<polygon points="77.8900,12.5054 76.9101,20.5420 78.7096,16.0665" fill="rgb(74,144,217)" stroke="none"/>
<polygon points="72.4167,7.5323 70.6917,7.1802 69.0168,7.2596" fill="rgb(74,144,217)" stroke="none"/>
<polygon points="77.8900,12.5054 78.7096,16.0665 78.5017,14.2764" fill="rgb(74,144,217)" stroke="none"/>
<polygon points="76.9101,10.8564 74.0915,8.2955 72.4167,7.5323" fill="rgb(74,144,217)" stroke="none"/>
<polygon points="76.9101,10.8564 72.4167,7.5323 77.8900,12.5054" fill="rgb(74,144,217)" stroke="none"/>
<polygon points="76.9101,10.8564 75.6189,9.4254 74.0915,8.2955" fill="rgb(74,144,217)" stroke="none"/>
<polyline points="2.5373,-6.3105 0.8625,-7.0737" fill="none" stroke="black"/>
<polyline points="37.7739,0.3296 38.3856,2.1006" fill="none" stroke="black"/>
<polyline points="6.3358,4.6871 6.9475,3.1659" fill="none" stroke="black"/>
<polyline points="-0.8625,-7.4258 -2.5373,-7.3463" fill="none" stroke="black"/>
<polyline points="28.6217,5.8424 28.8296,7.6325" fill="none" stroke="black"/>
<polyline points="1.8287,-3.3548 0.3013,-4.4847" fill="none" stroke="black"/>
<polyline points="29.4413,9.4035 30.4212,11.0525" fill="none" stroke="black"/>
<polyline points="-7.5920,-4.1103 -8.5719,-2.8614" fill="none" stroke="black"/>
<polyline points="0.3013,-4.4847 -1.3736,-5.2479" fill="none" stroke="black"/>
<polyline points="34.9146,-0.1228 33.2397,-0.0434" fill="none" stroke="black"/>
<polyline points="26.8328,14.6059 44.7214,18.2574" fill="none" stroke="black"/>
<polyline points="-4.0647,-6.8399 -5.3559,-5.9360" fill="none" stroke="black"/>
<polyline points="39.3655,3.7495 40.6566,5.1805" fill="none" stroke="black"/>
<polyline points="76.4337,0.4630 75.1425,1.3669" fill="none" stroke="black"/>
<polyline points="-8.5719,-2.8614 -9.1836,-1.3401" fill="none" stroke="black"/>
<polyline points="69.0168,7.2596 67.4894,7.7660" fill="none" stroke="black"/>
<polyline points="6.9475,-0.3296 6.3358,-2.1006" fill="none" stroke="black"/>
<polyline points="70.6917,7.1802 69.0168,7.2596" fill="none" stroke="black"/>
<polyline points="17.8885,-14.6059 8.9443,-7.3030" fill="none" stroke="black"/>
<polyline points="3.1198,7.7618 5.3559,5.9360" fill="none" stroke="black"/>
<polyline points="79.6360,-0.1228 77.9611,-0.0434" fill="none" stroke="black"/>
<polyline points="4.0997,-0.2748 3.1198,-1.9238" fill="none" stroke="black"/>
<polyline points="41.1330,13.2390 42.1129,11.9901" fill="none" stroke="black"/>
<polyline points="4.7114,1.4962 4.0997,-0.2748" fill="none" stroke="black"/>
<polyline points="3.1198,-1.9238 1.8287,-3.3548" fill="none" stroke="black"/>
<polyline points="-4.7734,-5.5206 -6.3008,-5.0142" fill="none" stroke="black"/>
<polyline points="-8.5719,3.9263 -7.5920,5.5752" fill="none" stroke="black"/>
<polyline points="44.7214,18.2574 44.7214,-0.0000" fill="none" stroke="black"/>
<polyline points="78.7096,16.0665 78.5017,17.7718" fill="none" stroke="black"/>
<polyline points="38.3856,2.1006 39.3655,3.7495" fill="none" stroke="black"/>
<polyline points="7.1554,1.4606 6.9475,3.1659" fill="none" stroke="black"/>
<polyline points="5.3559,5.9360 6.3358,4.6871" fill="none" stroke="black"/>
<polyline points="69.0168,20.9164 70.6917,21.6796" fill="none" stroke="black"/>
<polyline points="64.6067,11.4401 64.3988,13.1453" fill="none" stroke="black"/>
<polyline points="26.8328,14.6059 26.8328,-3.6515" fill="none" stroke="black"/>
<polyline points="84.5632,2.1225 83.0358,0.9925" fill="none" stroke="black"/>
<polyline points="-7.5920,5.5752 -6.3008,7.0063" fill="none" stroke="black"/>
<polyline points="77.8900,12.5054 76.9101,10.8564" fill="none" stroke="black"/>
<polyline points="76.9101,10.8564 75.6189,9.4254" fill="none" stroke="black"/>
<polyline points="78.7096,16.0665 78.5017,14.2764" fill="none" stroke="black"/>
<polyline points="4.0997,6.5129 4.7114,4.9916" fill="none" stroke="black"/>
<polyline points="77.9611,-0.0434 76.4337,0.4630" fill="none" stroke="black"/>
<polyline points="42.9325,8.7636 42.7246,6.9734" fill="none" stroke="black"/>
<polyline points="67.4894,7.7660 66.1983,8.6699" fill="none" stroke="black"/>
<polyline points="8.9443,10.9545 8.9443,-7.3030" fill="none" stroke="black"/>
<polyline points="30.4212,1.3669 29.4413,2.6158" fill="none" stroke="black"/>
<polyline points="6.3358,-2.1006 5.3559,-3.7495" fill="none" stroke="black"/>
<polyline points="4.9193,3.2863 4.7114,1.4962" fill="none" stroke="black"/>
<polyline points="17.8885,3.6515 8.9443,10.9545" fill="none" stroke="black"/>
<polyline points="72.4167,22.0317 74.0915,21.9523" fill="none" stroke="black"/>
<polyline points="78.5017,14.2764 77.8900,12.5054" fill="none" stroke="black"/>
<polyline points="-7.5920,-4.1103 -5.3559,-5.9360" fill="none" stroke="black"/>
<polyline points="64.3988,13.1453 64.6067,14.9355" fill="none" stroke="black"/>
<polyline points="12.0428,-16.2024 10.3178,-16.5545" fill="none" stroke="black"/>
<polyline points="-4.0647,-6.8399 -5.3559,-5.9360" fill="none" stroke="black"/>
<polyline points="72.4167,7.5323 70.6917,7.1802" fill="none" stroke="black"/>
<polyline points="3.1198,7.7618 4.0997,6.5129" fill="none" stroke="black"/>
<polyline points="76.9101,20.5420 77.8900,19.2931" fill="none" stroke="black"/>
<polyline points="35.7771,-10.9545 53.6656,-7.3030" fill="none" stroke="black"/>
<polyline points="-3.0986,-5.6000 -4.7734,-5.5206" fill="none" stroke="black"/>
<polyline points="33.2397,13.6134 34.9146,14.3766" fill="none" stroke="black"/>
<polyline points="0.0000,-18.2574 -8.9443,-10.9545" fill="none" stroke="black"/>
<polyline points="7.1554,1.4606 6.9475,-0.3296" fill="none" stroke="black"/>
<polyline points="33.2397,13.6134 34.9146,14.3766" fill="none" stroke="black"/>
<polyline points="4.9193,3.2863 7.1554,1.4606" fill="none" stroke="black"/>
<polyline points="87.4459,10.4688 87.6539,8.7636" fill="none" stroke="black"/>
<polyline points="76.9101,20.5420 85.8544,13.2390" fill="none" stroke="black"/>
<polyline points="26.8328,-3.6515 44.7214,-0.0000" fill="none" stroke="black"/>
<polyline points="34.9146,14.3766 36.6396,14.7287" fill="none" stroke="black"/>
<polyline points="4.0647,-5.1805 2.5373,-6.3105" fill="none" stroke="black"/>
<polyline points="31.7123,12.4835 33.2397,13.6134" fill="none" stroke="black"/>
<polyline points="6.9475,-0.3296 6.3358,-2.1006" fill="none" stroke="black"/>
<polyline points="29.4413,9.4035 30.4212,11.0525" fill="none" stroke="black"/>
<polyline points="-2.5373,-7.3463 -4.0647,-6.8399" fill="none" stroke="black"/>
<polyline points="87.4459,6.9734 86.8343,5.2024" fill="none" stroke="black"/>
<polyline points="86.8343,11.9901 87.4459,10.4688" fill="none" stroke="black"/>
<polyline points="35.7771,-10.9545 26.8328,-3.6515" fill="none" stroke="black"/>
<polyline points="42.1129,5.2024 41.1330,3.5535" fill="none" stroke="black"/>
<polyline points="76.9101,10.8564 75.6189,9.4254" fill="none" stroke="black"/>
<polyline points="28.8296,7.6325 29.4413,9.4035" fill="none" stroke="black"/>
<polyline points="4.0997,-0.2748 3.1198,-1.9238" fill="none" stroke="black"/>
<polyline points="30.4212,11.0525 31.7123,12.4835" fill="none" stroke="black"/>
<polyline points="75.6189,21.4459 76.9101,20.5420" fill="none" stroke="black"/>
<polyline points="65.2184,16.7065 66.1983,18.3554" fill="none" stroke="black"/>
<polyline points="78.5017,14.2764 77.8900,12.5054" fill="none" stroke="black"/>
<polyline points="72.4167,7.5323 70.6917,7.1802" fill="none" stroke="black"/>
<polyline points="-1.3736,-5.2479 -3.0986,-5.6000" fill="none" stroke="black"/>
<polyline points="4.7114,1.4962 4.0997,-0.2748" fill="none" stroke="black"/>
<polyline points="40.6566,5.1805 42.1840,6.3105" fill="none" stroke="black"/>
<polyline points="0.8625,-7.0737 -0.8625,-7.4258" fill="none" stroke="black"/>
<polyline points="42.7246,6.9734 42.1129,5.2024" fill="none" stroke="black"/>
<polyline points="77.8900,19.2931 78.5017,17.7718" fill="none" stroke="black"/>
<polyline points="0.0000,-18.2574 17.8885,-14.6059" fill="none" stroke="black"/>
<polyline points="4.9193,3.2863 4.7114,4.9916" fill="none" stroke="black"/>
<polyline points="30.4212,11.0525 31.7123,12.4835" fill="none" stroke="black"/>
<polyline points="4.9193,3.2863 4.7114,1.4962" fill="none" stroke="black"/>
<polyline points="-2.5373,-7.3463 -4.0647,-6.8399" fill="none" stroke="black"/>
<polyline points="10.3178,-16.5545 8.6430,-16.4750" fill="none" stroke="black"/>
<polyline points="-0.8625,-7.4258 -2.5373,-7.3463" fill="none" stroke="black"/>
<polyline points="33.2397,-0.0434 31.7123,0.4630" fill="none" stroke="black"/>
<polyline points="53.6656,-7.3030 44.7214,-0.0000" fill="none" stroke="black"/>
<polyline points="75.6189,9.4254 74.0915,8.2955" fill="none" stroke="black"/>
<polyline points="78.7096,16.0665 78.5017,14.2764" fill="none" stroke="black"/>
<polyline points="17.8885,3.6515 17.8885,-14.6059" fill="none" stroke="black"/>
<polyline points="39.8418,14.1429 41.1330,13.2390" fill="none" stroke="black"/>
<polyline points="29.4413,2.6158 28.8296,4.1371" fill="none" stroke="black"/>
<polyline points="4.0647,-5.1805 2.5373,-6.3105" fill="none" stroke="black"/>
<polyline points="-9.3915,0.3651 -9.1836,2.1553" fill="none" stroke="black"/>
<polyline points="-4.7734,8.1362 -3.0986,8.8994" fill="none" stroke="black"/>
<polyline points="38.3144,0.9925 36.6396,0.2293" fill="none" stroke="black"/>
<polyline points="36.6396,14.7287 38.3144,14.6493" fill="none" stroke="black"/>
<polyline points="69.0168,7.2596 67.4894,7.7660" fill="none" stroke="black"/>
<polyline points="31.7123,0.4630 30.4212,1.3669" fill="none" stroke="black"/>
<polyline points="7.1554,1.4606 6.9475,-0.3296" fill="none" stroke="black"/>
<polyline points="75.6189,9.4254 74.0915,8.2955" fill="none" stroke="black"/>
<polyline points="76.9101,20.5420 77.8900,19.2931" fill="none" stroke="black"/>
<polyline points="39.8418,14.1429 41.1330,13.2390" fill="none" stroke="black"/>
<polyline points="41.1330,3.5535 39.8418,2.1225" fill="none" stroke="black"/>
<polyline points="6.3358,4.6871 6.9475,3.1659" fill="none" stroke="black"/>
<polyline points="30.4212,1.3669 29.4413,2.6158" fill="none" stroke="black"/>
<polyline points="-6.3008,7.0063 -4.7734,8.1362" fill="none" stroke="black"/>
<polyline points="66.1983,8.6699 65.2184,9.9188" fill="none" stroke="black"/>
<polyline points="28.8296,7.6325 29.4413,9.4035" fill="none" stroke="black"/>
<polyline points="28.8296,4.1371 28.6217,5.8424" fill="none" stroke="black"/>
<polyline points="7.1554,1.4606 6.9475,3.1659" fill="none" stroke="black"/>
<polyline points="6.3358,-2.1006 5.3559,-3.7495" fill="none" stroke="black"/>
<polyline points="78.5017,17.7718 78.7096,16.0665" fill="none" stroke="black"/>
<polyline points="13.7177,-15.4392 12.0428,-16.2024" fill="none" stroke="black"/>
<polyline points="-4.7734,-5.5206 -6.3008,-5.0142" fill="none" stroke="black"/>
<polyline points="65.2184,9.9188 64.6067,11.4401" fill="none" stroke="black"/>
<polyline points="17.8885,-14.6059 8.9443,-7.3030" fill="none" stroke="black"/>
<polyline points="28.6217,5.8424 28.8296,7.6325" fill="none" stroke="black"/>
<polyline points="77.8900,19.2931 78.5017,17.7718" fill="none" stroke="black"/>
<polyline points="86.8343,5.2024 85.8544,3.5535" fill="none" stroke="black"/>
<polyline points="-8.9443,-10.9545 8.9443,-7.3030" fill="none" stroke="black"/>
<polyline points="5.3559,-3.7495 4.0647,-5.1805" fill="none" stroke="black"/>
<polyline points="0.8625,-7.0737 -0.8625,-7.4258" fill="none" stroke="black"/>
<polyline points="4.0997,6.5129 4.7114,4.9916" fill="none" stroke="black"/>
<polyline points="2.5373,-6.3105 0.8625,-7.0737" fill="none" stroke="black"/>
<polyline points="85.8544,3.5535 84.5632,2.1225" fill="none" stroke="black"/>
<polyline points="-1.3736,9.2515 0.3013,9.1721" fill="none" stroke="black"/>
<polyline points="85.8544,13.2390 86.8343,11.9901" fill="none" stroke="black"/>
<polyline points="53.6656,-7.3030 44.7214,-0.0000" fill="none" stroke="black"/>
<polyline points="36.6396,14.7287 38.3144,14.6493" fill="none" stroke="black"/>
<polyline points="74.0915,8.2955 72.4167,7.5323" fill="none" stroke="black"/>
<polyline points="74.0915,21.9523 75.6189,21.4459" fill="none" stroke="black"/>
<polyline points="70.6917,21.6796 72.4167,22.0317" fill="none" stroke="black"/>
<polyline points="64.6067,14.9355 65.2184,16.7065" fill="none" stroke="black"/>
<polyline points="8.9443,10.9545 8.9443,-7.3030" fill="none" stroke="black"/>
<polyline points="1.8287,-3.3548 0.3013,-4.4847" fill="none" stroke="black"/>
<polyline points="34.9146,14.3766 36.6396,14.7287" fill="none" stroke="black"/>
<polyline points="0.3013,-4.4847 -1.3736,-5.2479" fill="none" stroke="black"/>
<polyline points="66.1983,8.6699 75.1425,1.3669" fill="none" stroke="black"/>
<polyline points="38.3144,14.6493 39.8418,14.1429" fill="none" stroke="black"/>
<polyline points="29.4413,2.6158 28.8296,4.1371" fill="none" stroke="black"/>
<polyline points="18.3358,-7.6681 18.1278,-9.4583" fill="none" stroke="black"/>
<polyline points="77.8900,12.5054 76.9101,10.8564" fill="none" stroke="black"/>
<polyline points="36.6396,0.2293 34.9146,-0.1228" fill="none" stroke="black"/>
<polyline points="38.3144,14.6493 39.8418,14.1429" fill="none" stroke="black"/>
<polyline points="42.1129,11.9901 42.7246,10.4688" fill="none" stroke="black"/>
<polyline points="78.7096,16.0665 87.6539,8.7636" fill="none" stroke="black"/>
<polyline points="0.3013,9.1721 1.8287,8.6657" fill="none" stroke="black"/>
<polyline points="28.8296,4.1371 28.6217,5.8424" fill="none" stroke="black"/>
<polyline points="-3.0986,8.8994 -1.3736,9.2515" fill="none" stroke="black"/>
<polyline points="31.7123,12.4835 33.2397,13.6134" fill="none" stroke="black"/>
<polyline points="67.4894,19.7864 69.0168,20.9164" fill="none" stroke="black"/>
<polyline points="-6.3008,-5.0142 -7.5920,-4.1103" fill="none" stroke="black"/>
<polyline points="5.3559,5.9360 6.3358,4.6871" fill="none" stroke="black"/>
<polyline points="18.1278,-5.9628 18.3358,-7.6681" fill="none" stroke="black"/>
<polyline points="3.1198,7.7618 4.0997,6.5129" fill="none" stroke="black"/>
<polyline points="39.8418,2.1225 38.3144,0.9925" fill="none" stroke="black"/>
<polyline points="1.8287,8.6657 3.1198,7.7618" fill="none" stroke="black"/>
<polyline points="83.0358,0.9925 81.3609,0.2293" fill="none" stroke="black"/>
<polyline points="7.1554,1.4606 4.9193,3.2863" fill="none" stroke="black"/>
<polyline points="53.6656,10.9545 53.6656,-7.3030" fill="none" stroke="black"/>
<polyline points="74.0915,8.2955 72.4167,7.5323" fill="none" stroke="black"/>
<polyline points="-9.1836,-1.3401 -9.3915,0.3651" fill="none" stroke="black"/>
<polyline points="5.3559,-3.7495 4.0647,-5.1805" fill="none" stroke="black"/>
<polyline points="-6.3008,-5.0142 -7.5920,-4.1103" fill="none" stroke="black"/>
<polyline points="81.3609,0.2293 79.6360,-0.1228" fill="none" stroke="black"/>
<polyline points="-8.9443,-10.9545 8.9443,-7.3030" fill="none" stroke="black"/>
<polyline points="42.9325,8.7636 42.7246,10.4688" fill="none" stroke="black"/>
<polyline points="87.6539,8.7636 87.4459,6.9734" fill="none" stroke="black"/>
<polyline points="-1.3736,-5.2479 -3.0986,-5.6000" fill="none" stroke="black"/>
<polyline points="70.6917,7.1802 69.0168,7.2596" fill="none" stroke="black"/>
<polyline points="78.7096,16.0665 87.6539,8.7636" fill="none" stroke="black"/>
<polyline points="26.8328,-3.6515 44.7214,-0.0000" fill="none" stroke="black"/>
<polyline points="-9.1836,2.1553 -8.5719,3.9263" fill="none" stroke="black"/>
<polyline points="53.6656,10.9545 44.7214,18.2574" fill="none" stroke="black"/>
<polyline points="-3.0986,-5.6000 -4.7734,-5.5206" fill="none" stroke="black"/>
<polyline points="44.7214,18.2574 44.7214,-0.0000" fill="none" stroke="black"/>
<polyline points="66.1983,18.3554 67.4894,19.7864" fill="none" stroke="black"/>
<polyline points="3.1198,-1.9238 1.8287,-3.3548" fill="none" stroke="black"/>
<polyline points="67.4894,7.7660 66.1983,8.6699" fill="none" stroke="black"/>
<polyline points="4.9193,3.2863 4.7114,4.9916" fill="none" stroke="black"/>
<polyline points="-6.9475,-3.1659 -7.1554,-1.4606" fill="none" stroke="#999" stroke-dasharray="0.8734,0.8734"/>
<polyline points="0.8625,7.4258 2.5373,7.3463" fill="none" stroke="#999" stroke-dasharray="0.8734,0.8734"/>
<polyline points="-5.3559,-5.9360 -6.3358,-4.6871" fill="none" stroke="#999" stroke-dasharray="0.8734,0.8734"/>
<polyline points="8.6430,-16.4750 7.1156,-15.9686" fill="none" stroke="#999" stroke-dasharray="0.8734,0.8734"/>
<polyline points="-4.0647,5.1805 -2.5373,6.3105" fill="none" stroke="#999" stroke-dasharray="0.8734,0.8734"/>
<polyline points="15.2801,-2.6158 15.8918,-4.1371" fill="none" stroke="#999" stroke-dasharray="0.8734,0.8734"/>
<polyline points="14.3002,-1.3669 15.2801,-2.6158" fill="none" stroke="#999" stroke-dasharray="0.8734,0.8734"/>
<polyline points="-0.8625,7.0737 0.8625,7.4258" fill="none" stroke="#999" stroke-dasharray="0.8734,0.8734"/>
<polyline points="30.4212,1.3669 39.3655,-5.9360" fill="none" stroke="#999" stroke-dasharray="0.8734,0.8734"/>
<polyline points="17.5161,-4.4416 18.1278,-5.9628" fill="none" stroke="#999" stroke-dasharray="0.8734,0.8734"/>
<polyline points="-2.5373,6.3105 -0.8625,7.0737" fill="none" stroke="#999" stroke-dasharray="0.8734,0.8734"/>
<polyline points="-6.9475,0.3296 -6.3358,2.1006" fill="none" stroke="#999" stroke-dasharray="0.8734,0.8734"/>
<polyline points="7.1156,-15.9686 5.8244,-15.0647" fill="none" stroke="#999" stroke-dasharray="0.8734,0.8734"/>
<polyline points="-6.3358,2.1006 -5.3559,3.7495" fill="none" stroke="#999" stroke-dasharray="0.8734,0.8734"/>
<polyline points="15.2801,-9.4035 14.3002,-11.0525" fill="none" stroke="#999" stroke-dasharray="0.8734,0.8734"/>
<polyline points="9.8068,-14.3766 8.0818,-14.7287" fill="none" stroke="#999" stroke-dasharray="0.8734,0.8734"/>
<polyline points="-8.9443,7.3030 8.9443,10.9545" fill="none" stroke="#999" stroke-dasharray="0.8734,0.8734"/>
<polyline points="14.3002,-1.3669 16.5362,-3.1927" fill="none" stroke="#999" stroke-dasharray="0.8734,0.8734"/>
<polyline points="16.5362,-12.8782 15.2451,-14.3092" fill="none" stroke="#999" stroke-dasharray="0.8734,0.8734"/>
<polyline points="16.0997,-5.8424 18.3358,-7.6681" fill="none" stroke="#999" stroke-dasharray="0.8734,0.8734"/>
<polyline points="6.4069,-14.6493 4.8795,-14.1429" fill="none" stroke="#999" stroke-dasharray="0.8734,0.8734"/>
<polyline points="15.8918,-4.1371 16.0997,-5.8424" fill="none" stroke="#999" stroke-dasharray="0.8734,0.8734"/>
<polyline points="16.0997,-5.8424 18.3358,-7.6681" fill="none" stroke="#999" stroke-dasharray="0.8734,0.8734"/>
<polyline points="-6.3358,-4.6871 -6.9475,-3.1659" fill="none" stroke="#999" stroke-dasharray="0.8734,0.8734"/>
<polyline points="13.0090,-12.4835 11.4816,-13.6134" fill="none" stroke="#999" stroke-dasharray="0.8734,0.8734"/>
<polyline points="17.5161,-11.2293 16.5362,-12.8782" fill="none" stroke="#999" stroke-dasharray="0.8734,0.8734"/>
<polyline points="37.5659,-1.4606 37.7739,0.3296" fill="none" stroke="#999" stroke-dasharray="0.8734,0.8734"/>
<polyline points="14.3002,-11.0525 13.0090,-12.4835" fill="none" stroke="#999" stroke-dasharray="0.8734,0.8734"/>
<polyline points="37.7739,-3.1659 37.5659,-1.4606" fill="none" stroke="#999" stroke-dasharray="0.8734,0.8734"/>
<polyline points="39.3655,-5.9360 38.3856,-4.6871" fill="none" stroke="#999" stroke-dasharray="0.8734,0.8734"/>
<polyline points="38.3856,-4.6871 37.7739,-3.1659" fill="none" stroke="#999" stroke-dasharray="0.8734,0.8734"/>
<polyline points="4.0647,6.8399 5.3559,5.9360" fill="none" stroke="#999" stroke-dasharray="0.8734,0.8734"/>
<polyline points="42.1840,6.3105 43.8589,7.0737" fill="none" stroke="#999" stroke-dasharray="0.8734,0.8734"/>
<polyline points="8.0818,-14.7287 6.4069,-14.6493" fill="none" stroke="#999" stroke-dasharray="0.8734,0.8734"/>
<polyline points="11.4816,-13.6134 9.8068,-14.3766" fill="none" stroke="#999" stroke-dasharray="0.8734,0.8734"/>
<polyline points="3.5884,-13.2390 5.8244,-15.0647" fill="none" stroke="#999" stroke-dasharray="0.8734,0.8734"/>
<polyline points="18.1278,-9.4583 17.5161,-11.2293" fill="none" stroke="#999" stroke-dasharray="0.8734,0.8734"/>
<polyline points="43.8589,7.0737 45.5838,7.4258" fill="none" stroke="#999" stroke-dasharray="0.8734,0.8734"/>
<polyline points="48.7861,6.8399 50.0773,5.9360" fill="none" stroke="#999" stroke-dasharray="0.8734,0.8734"/>
<polyline points="4.8795,-14.1429 3.5884,-13.2390" fill="none" stroke="#999" stroke-dasharray="0.8734,0.8734"/>
<polyline points="16.5362,-3.1927 17.5161,-4.4416" fill="none" stroke="#999" stroke-dasharray="0.8734,0.8734"/>
<polyline points="2.5373,7.3463 4.0647,6.8399" fill="none" stroke="#999" stroke-dasharray="0.8734,0.8734"/>
<polyline points="45.5838,7.4258 47.2587,7.3463" fill="none" stroke="#999" stroke-dasharray="0.8734,0.8734"/>
<polyline points="15.8918,-7.6325 15.2801,-9.4035" fill="none" stroke="#999" stroke-dasharray="0.8734,0.8734"/>
<polyline points="-7.1554,-1.4606 -6.9475,0.3296" fill="none" stroke="#999" stroke-dasharray="0.8734,0.8734"/>
<polyline points="-5.3559,3.7495 -4.0647,5.1805" fill="none" stroke="#999" stroke-dasharray="0.8734,0.8734"/>
<polyline points="16.0997,-5.8424 15.8918,-7.6325" fill="none" stroke="#999" stroke-dasharray="0.8734,0.8734"/>
<polyline points="15.2451,-14.3092 13.7177,-15.4392" fill="none" stroke="#999" stroke-dasharray="0.8734,0.8734"/>
<polyline points="41.1330,13.2390 50.0773,5.9360" fill="none" stroke="#999" stroke-dasharray="0.8734,0.8734"/>
<polyline points="-8.9443,7.3030 -8.9443,-10.9545" fill="none" stroke="#999" stroke-dasharray="0.8734,0.8734"/>
<polyline points="47.2587,7.3463 48.7861,6.8399" fill="none" stroke="#999" stroke-dasharray="0.8734,0.8734"/>
</svg>
